<!-- Generated by IcoMoon.io -->
<svg version="1.1" xmlns="http://www.w3.org/2000/svg" viewBox="0 0 32 32">
<title>ic-arrow-left-2</title>
<path fill="#272727" d="M23.139 7.063l0.031 0.236-0.353 0.073-0.047 0.502h0.423l0.563-0.054 0.291-0.345-0.309-0.12-0.169-0.195-0.254-0.411-0.121-0.582-0.477 0.097-0.134 0.205v0.231l0.23 0.157z"></path>
<path fill="#272727" d="M22.732 7.256l0.025-0.315-0.28-0.121-0.392 0.091-0.291 0.466v0.302h0.339z"></path>
<path fill="#272727" d="M31.751 15.713c-0.005-0.464-0.028-0.925-0.072-1.379-0.147-1.513-0.509-2.964-1.051-4.323-0.041-0.101-0.078-0.204-0.121-0.304-0.722-1.706-1.736-3.26-2.978-4.601-0.082-0.088-0.165-0.174-0.247-0.259-0.234-0.244-0.475-0.481-0.725-0.709-2.823-2.57-6.571-4.138-10.68-4.138-4.144 0-7.919 1.597-10.749 4.206-0.66 0.608-1.266 1.272-1.816 1.982-2.074 2.683-3.312 6.043-3.312 9.689 0 8.756 7.123 15.878 15.878 15.878 6.158 0 11.505-3.527 14.137-8.665 0.563-1.098 1.001-2.269 1.296-3.497 0.075-0.311 0.14-0.624 0.196-0.941 0.16-0.902 0.247-1.829 0.247-2.776 0.001-0.055-0.003-0.109-0.003-0.164zM28.763 9.367l0.092-0.103c0.121 0.234 0.234 0.473 0.342 0.714l-0.15-0.006-0.283 0.039v-0.645zM26.469 6.597l0.003-0.709c0.249 0.264 0.49 0.537 0.72 0.819l-0.286 0.426-1-0.009-0.063-0.208 0.626-0.318zM7.316 4.835v-0.027h0.318l0.027-0.109h0.52v0.227l-0.15 0.2h-0.717l0.001-0.291zM7.824 5.543c0 0 0.318-0.054 0.345-0.054s0 0.317 0 0.317l-0.717 0.045-0.136-0.163 0.508-0.145zM29.774 11.846h-1.162l-0.708-0.527-0.745 0.072v0.455h-0.236l-0.255-0.182-1.29-0.327v-0.836l-1.635 0.127-0.507 0.272h-0.649l-0.318-0.032-0.788 0.438v0.823l-1.611 1.162 0.134 0.496h0.327l-0.086 0.473-0.23 0.084-0.012 1.236 1.392 1.586h0.606l0.037-0.097h1.089l0.314-0.291h0.618l0.339 0.34 0.921 0.095-0.122 1.224 1.022 1.804-0.538 1.029 0.037 0.485 0.424 0.423v1.165l0.556 0.748v0.968h0.481c-2.675 3.284-6.746 5.388-11.301 5.388-8.034 0.001-14.57-6.537-14.57-14.571 0-2.023 0.415-3.95 1.163-5.703v-0.455l0.521-0.633c0.181-0.342 0.375-0.675 0.582-0.999l0.023 0.264-0.605 0.735c-0.187 0.354-0.362 0.716-0.521 1.087v0.829l0.605 0.291v1.153l0.581 0.991 0.472 0.072 0.061-0.34-0.557-0.859-0.109-0.835h0.327l0.138 0.859 0.805 1.175-0.208 0.379 0.512 0.783 1.271 0.315v-0.206l0.509 0.072-0.048 0.363 0.4 0.073 0.617 0.168 0.872 0.993 1.113 0.084 0.109 0.908-0.762 0.533-0.036 0.811-0.109 0.496 1.102 1.38 0.084 0.473c0 0 0.4 0.108 0.449 0.108s0.896 0.642 0.896 0.642v2.494l0.302 0.085-0.206 1.151 0.509 0.679-0.094 1.14 0.672 1.181 0.863 0.754 0.867 0.016 0.085-0.279-0.637-0.537 0.037-0.266 0.114-0.327 0.024-0.333-0.431-0.013-0.217-0.273 0.358-0.344 0.048-0.26-0.4-0.114 0.024-0.242 0.569-0.086 0.866-0.416 0.291-0.533 0.908-1.162-0.206-0.909 0.279-0.484 0.835 0.025 0.562-0.445 0.182-1.754 0.624-0.792 0.109-0.509-0.569-0.182-0.375-0.616-1.283-0.013-1.017-0.388-0.048-0.726-0.34-0.594-0.92-0.014-0.532-0.835-0.472-0.231-0.024 0.255-0.859 0.051-0.315-0.438-0.897-0.182-0.739 0.854-1.162-0.197-0.084-1.31-0.848-0.145 0.34-0.643-0.097-0.369-1.115 0.745-0.701-0.086-0.25-0.548 0.153-0.565 0.387-0.713 0.89-0.451 1.719-0.001-0.005 0.524 0.618 0.287-0.049-0.896 0.445-0.448 0.899-0.59 0.061-0.415 0.896-0.933 0.953-0.528-0.084-0.069 0.645-0.607 0.236 0.063 0.108 0.136 0.245-0.272 0.060-0.027-0.268-0.038-0.272-0.091v-0.261l0.144-0.118h0.318l0.146 0.064 0.126 0.255 0.154-0.024v-0.022l0.044 0.015 0.447-0.069 0.063-0.218 0.255 0.064v0.236l-0.236 0.163h0.001l0.035 0.259 0.809 0.249c0 0 0.001 0.003 0.002 0.010l0.186-0.016 0.012-0.351-0.641-0.292-0.037-0.168 0.532-0.182 0.023-0.509-0.556-0.339-0.037-0.859-0.763 0.375h-0.278l0.073-0.654-1.038-0.245-0.43 0.325v0.99l-0.773 0.245-0.31 0.645-0.336 0.054v-0.825l-0.726-0.101-0.363-0.236-0.146-0.535 1.299-0.76 0.635-0.193 0.064 0.427 0.354-0.018 0.027-0.215 0.37-0.053 0.007-0.075-0.159-0.066-0.037-0.227 0.455-0.039 0.275-0.286 0.015-0.021 0.003 0.001 0.084-0.086 0.957-0.121 0.423 0.359-1.11 0.591 1.412 0.333 0.183-0.472h0.617l0.218-0.411-0.436-0.109v-0.521l-1.368-0.606-0.944 0.109-0.533 0.279 0.037 0.678-0.557-0.085-0.086-0.375 0.534-0.485-0.969-0.048-0.278 0.084-0.121 0.327 0.363 0.061-0.072 0.363-0.617 0.037-0.097 0.242-0.895 0.025c0 0-0.025-0.508-0.061-0.508s0.702-0.012 0.702-0.012l0.534-0.521-0.291-0.146-0.387 0.376-0.643-0.037-0.387-0.533h-0.823l-0.859 0.642h0.788l0.072 0.231-0.204 0.19 0.872 0.024 0.133 0.315-0.982-0.037-0.048-0.242-0.617-0.133-0.327-0.182-0.735 0.006c2.405-1.752 5.363-2.789 8.56-2.789 3.685 0 7.051 1.377 9.62 3.64l-0.173 0.31-0.672 0.263-0.283 0.308 0.065 0.359 0.347 0.048 0.209 0.522 0.598-0.241 0.099 0.699h-0.18l-0.491-0.072-0.545 0.091-0.527 0.745-0.754 0.118-0.109 0.645 0.318 0.075-0.092 0.415-0.748-0.15-0.686 0.15-0.146 0.382 0.119 0.802 0.403 0.189 0.676-0.004 0.456-0.041 0.139-0.363 0.713-0.927 0.47 0.096 0.462-0.418 0.086 0.327 1.138 0.767-0.139 0.187-0.513-0.027 0.197 0.28 0.315 0.069 0.37-0.154-0.008-0.445 0.164-0.082-0.132-0.14-0.759-0.423-0.2-0.562h0.631l0.202 0.2 0.543 0.468 0.023 0.566 0.563 0.6 0.21-0.822 0.39-0.213 0.073 0.672 0.381 0.418 0.759-0.013c0.147 0.378 0.279 0.763 0.394 1.155l-0.079 0.073zM8.66 7.214l0.381-0.182 0.345 0.082-0.119 0.463-0.372 0.118-0.235-0.482zM10.684 8.304v0.3h-0.871l-0.327-0.091 0.082-0.209 0.419-0.173h0.572v0.173h0.125zM11.085 8.722v0.291l-0.218 0.14-0.272 0.050v-0.481h0.49zM10.839 8.603v-0.345l0.3 0.273-0.3 0.072zM10.976 9.302v0.283l-0.208 0.209h-0.463l0.072-0.317 0.219-0.019 0.045-0.109 0.335-0.046zM9.823 8.722h0.481l-0.617 0.863-0.255-0.136 0.055-0.363 0.336-0.363zM11.794 9.203v0.282h-0.463l-0.127-0.183v-0.263h0.037l0.553 0.163zM11.366 8.815l0.132-0.138 0.223 0.138-0.178 0.147-0.176-0.147zM30.011 12.581l0.046-0.054c0.019 0.082 0.039 0.165 0.057 0.248l-0.103-0.195z"></path>
<path fill="#000" d="M2.47 9.72v0.455c0.194-0.371 0.409-0.733 0.638-1.087l-0.638 0.633z"></path>
</svg>
