<!-- Generated by IcoMoon.io -->
<svg version="1.1" xmlns="http://www.w3.org/2000/svg" viewBox="0 0 29 32">
<title>ic-bag-empty</title>
<path fill="#5d5c5d" d="M2.094 29.998l1.816-19.998h4.086v2.275c-0.595 0.347-0.995 0.986-0.995 1.724 0 1.104 0.892 2.002 1.996 2.002s2.002-0.899 2.002-2.002c0-0.737-0.405-1.376-1.001-1.724v-2.275h7.997v2.275c-0.595 0.347-0.995 0.986-0.995 1.724 0 1.104 0.892 2.002 1.996 2.002s2.002-0.899 2.002-2.002c0-0.737-0.405-1.376-1.001-1.724v-2.275h4.087l1.816 19.998h-23.807zM9.998 6.001c0-2.207 1.797-3.998 3.998-3.998 2.207 0 3.998 1.791 3.998 3.998v1.996h-7.997v-1.996zM25.993 8.911c-0.049-0.517-0.479-0.914-0.996-0.914h-5v-1.996c0-3.311-2.69-6.001-6.001-6.001-3.305 0-6.001 2.69-6.001 6.001v1.996h-5c-0.517 0-0.946 0.396-0.995 0.914l-1.997 21.996c-0.025 0.282 0.069 0.556 0.259 0.766 0.185 0.205 0.454 0.327 0.737 0.327h25.999c0.277 0 0.546-0.122 0.736-0.327 0.186-0.21 0.284-0.484 0.259-0.766l-2.001-21.996z"></path>
<path fill="#5d5c5d" d="M9.684 23.464c1.604-3.102 3.226-4.585 4.81-4.569 1.588 0.016 3.215 1.539 4.821 4.68 0.153 0.3 0.52 0.418 0.82 0.265s0.418-0.52 0.265-0.82c-1.791-3.503-3.735-5.322-5.894-5.344-2.163-0.022-4.112 1.76-5.905 5.228-0.155 0.299-0.038 0.667 0.261 0.821s0.667 0.038 0.821-0.261z"></path>
</svg>
