<!-- Generated by IcoMoon.io -->
<svg version="1.1" xmlns="http://www.w3.org/2000/svg"  viewBox="0 0 32 32">
<title>ic-credit</title>
<path fill="#909090" d="M28.155 4.806h-24.332c-2.108 0-3.822 1.715-3.822 3.822v13.746c0 2.108 1.715 3.822 3.822 3.822h24.332c2.108 0 3.822-1.715 3.822-3.822v-13.746c0-2.108-1.715-3.822-3.822-3.822zM29.862 22.374c0 0.942-0.766 1.707-1.707 1.707h-24.332c-0.942 0-1.707-0.766-1.707-1.707v-9.212h27.747l0 9.212zM29.862 10.145l-27.747 0.002v-1.519c0-0.941 0.766-1.707 1.707-1.707h24.332c0.941 0 1.707 0.766 1.707 1.707v1.517z"></path>
<path fill="#909090" d="M4.74 22.12h5.79c0.207 0 0.376-0.168 0.376-0.375v-1.142c0-0.207-0.168-0.375-0.376-0.375h-5.79c-0.207 0-0.375 0.168-0.375 0.375v1.142c-0 0.207 0.168 0.375 0.375 0.375z"></path>
<path fill="#909090" d="M23.51 22.12h1.722c0.994 0 1.8-0.806 1.8-1.8v-1.722c0-0.994-0.806-1.8-1.8-1.8h-1.722c-0.994 0-1.8 0.806-1.8 1.8v1.722c0 0.994 0.806 1.8 1.8 1.8z"></path>
</svg>
