<!-- Generated by IcoMoon.io -->
<svg version="1.1" xmlns="http://www.w3.org/2000/svg" viewBox="0 0 48 32">
<title>ic-credit-card-filled</title>
<path fill="#4e595d" d="M4 1.4c-1.436 0-2.6 1.164-2.6 2.6v22.545c0 1.436 1.164 2.6 2.6 2.6h40c1.436 0 2.6-1.164 2.6-2.6v-22.545c0-1.436-1.164-2.6-2.6-2.6h-40zM4 0h40c2.209 0 4 1.791 4 4v22.545c0 2.209-1.791 4-4 4h-40c-2.209 0-4-1.791-4-4v-22.545c0-2.209 1.791-4 4-4z"></path>
<path fill="#4e595d" d="M35.455 18.412c-0.747-0.599-1.695-0.957-2.727-0.957-2.41 0-4.364 1.954-4.364 4.364s1.954 4.364 4.364 4.364c1.032 0 1.98-0.358 2.727-0.957 0.747 0.599 1.695 0.957 2.727 0.957 2.41 0 4.364-1.954 4.364-4.364s-1.954-4.364-4.364-4.364c-1.032 0-1.98 0.358-2.727 0.957zM7.636 18.545h12c0.602 0 1.091 0.488 1.091 1.091v0c0 0.602-0.488 1.091-1.091 1.091h-12c-0.603 0-1.091-0.488-1.091-1.091s0.488-1.091 1.091-1.091v0zM7.636 6.545h33.818c0.602 0 1.091 0.488 1.091 1.091v0c0 0.603-0.488 1.091-1.091 1.091h-33.818c-0.603 0-1.091-0.488-1.091-1.091s0.488-1.091 1.091-1.091v0zM7.636 22.909h12c0.602 0 1.091 0.488 1.091 1.091s-0.488 1.091-1.091 1.091h-12c-0.603 0-1.091-0.488-1.091-1.091s0.488-1.091 1.091-1.091v0z"></path>
</svg>
