<!-- Generated by IcoMoon.io -->
<svg version="1.1" xmlns="http://www.w3.org/2000/svg"  viewBox="0 0 32 32">
<title>ic-close-circle</title>
<path d="M16 30.667c8.1 0 14.667-6.567 14.667-14.667s-6.566-14.667-14.667-14.667c-8.1 0-14.667 6.566-14.667 14.667s6.566 14.667 14.667 14.667zM16 32c-8.837 0-16-7.163-16-16s7.163-16 16-16c8.837 0 16 7.163 16 16s-7.163 16-16 16z"></path>
<path d="M16.952 16l5.714-5.714-0.952-0.952-5.714 5.714-5.714-5.714-0.952 0.952 5.714 5.714-5.714 5.714 0.952 0.952 5.714-5.714 5.714 5.714 0.952-0.952z"></path>
</svg>
