<!-- Generated by IcoMoon.io -->
<svg version="1.1" xmlns="http://www.w3.org/2000/svg"  viewBox="0 0 32 32">
<title>ic-crown</title>
<path d="M29.353 10.104c-1.139 0-2.064 0.926-2.064 2.064 0 0.446 0.146 0.857 0.388 1.194l-3.901 2.476-1.025-2.222c-0.145-0.312-0.514-0.445-0.822-0.303l-2.583 1.188c-0.092 0.043-0.163 0.108-0.224 0.183l-2.665-4.012c0.767-0.301 1.313-1.044 1.313-1.917 0-1.138-0.925-2.063-2.063-2.063s-2.063 0.925-2.063 2.063c0 0.874 0.547 1.616 1.314 1.917l-2.665 4.012c-0.059-0.075-0.13-0.141-0.223-0.183l-2.582-1.188c-0.309-0.14-0.678-0.009-0.822 0.303l-1.048 2.265-3.881-2.519c0.243-0.338 0.39-0.749 0.39-1.196 0-1.138-0.925-2.064-2.063-2.064s-2.063 0.926-2.063 2.064c0 1.138 0.926 2.063 2.063 2.063 0.217 0 0.421-0.043 0.617-0.105l5.038 7.995c0.115 0.18 0.312 0.291 0.525 0.291h14.931c0.213 0 0.412-0.111 0.525-0.291l5.038-7.995c0.197 0.062 0.401 0.105 0.617 0.105 1.139 0 2.064-0.925 2.064-2.063s-0.928-2.063-2.065-2.063zM19.863 15.631l2.019-0.929 0.835 1.809-1.674 1.064-1.279-1.919c0.034-0.010 0.066-0.009 0.099-0.024zM15.708 7.934c0.454 0 0.823 0.37 0.823 0.824 0 0.455-0.368 0.823-0.823 0.823s-0.823-0.368-0.823-0.823c-0.001-0.453 0.369-0.824 0.823-0.824zM9.533 14.702l2.019 0.929c0.032 0.015 0.064 0.015 0.097 0.023l-1.322 1.988-1.658-1.076 0.864-1.863zM1.24 12.168c0-0.454 0.369-0.824 0.823-0.824s0.823 0.37 0.823 0.824c0 0.455-0.369 0.823-0.823 0.823s-0.823-0.368-0.823-0.823zM22.83 21.172h-14.246l-3.392-5.383 4.974 3.227c0.287 0.185 0.668 0.106 0.854-0.178l4.686-7.050 4.638 6.977c0.187 0.281 0.565 0.362 0.848 0.181l5.062-3.213-3.424 5.439zM29.353 12.992c-0.454 0-0.824-0.368-0.824-0.823 0-0.454 0.37-0.824 0.824-0.824s0.822 0.37 0.822 0.824c0 0.454-0.368 0.823-0.822 0.823zM23.845 24.357c0 0.341-0.278 0.62-0.62 0.62h-15.034c-0.342 0-0.62-0.279-0.62-0.62s0.278-0.62 0.62-0.62h15.034c0.342 0 0.62 0.278 0.62 0.62z"></path>
</svg>
