<!-- Generated by IcoMoon.io -->
<svg version="1.1" xmlns="http://www.w3.org/2000/svg"  viewBox="0 0 32 32">
<title>ic-double-down</title>
<path fill="#5d5c5d" d="M27.919 14.586c0.781-0.781 2.047-0.781 2.828 0s0.781 2.047 0 2.828l-13.333 13.333c-0.781 0.781-2.047 0.781-2.828 0l-13.333-13.333c-0.781-0.781-0.781-2.047 0-2.828s2.047-0.781 2.828 0l11.919 11.919 11.919-11.919z"></path>
<path fill="#5d5c5d" d="M16 13.172l11.919-11.919c0.781-0.781 2.047-0.781 2.828 0s0.781 2.047 0 2.828l-13.333 13.333c-0.781 0.781-2.047 0.781-2.828 0l-13.333-13.333c-0.781-0.781-0.781-2.047 0-2.828s2.047-0.781 2.828 0l11.919 11.919z"></path>
</svg>
