<!-- Generated by IcoMoon.io -->
<svg version="1.1" xmlns="http://www.w3.org/2000/svg" viewBox="0 0 41 32">
<title>ic-exclusive</title>
<path fill="#4e595d" d="M3.953 19.036c0 0 0.39-1.581-0.921-2.951-1.317-1.373-2.97-1.378-2.97-1.378s-0.411 1.856 0.87 3.194c1.28 1.334 3.021 1.135 3.021 1.135z"></path>
<path fill="#4e595d" d="M6.857 18.749c0 0 1.537-0.834 1.819-2.667 0.283-1.828-1.122-3.114-1.122-3.114s-1.346 0.957-1.637 2.835c-0.288 1.879 0.94 2.946 0.94 2.946z"></path>
<path fill="#4e595d" d="M9.169 23.361c0 0 1.416-1.031 1.457-2.883 0.037-1.849-1.522-2.94-1.522-2.94s-1.211 1.122-1.252 3.023c-0.041 1.9 1.317 2.799 1.317 2.799z"></path>
<path fill="#4e595d" d="M13.809 23.018c-0.135-1.844-1.79-2.784-1.79-2.784s-1.1 1.231-0.963 3.127c0.137 1.896 1.573 2.663 1.573 2.663s1.313-1.161 1.179-3.006z"></path>
<path fill="#4e595d" d="M16.977 28.323c0 0 0.926-1.485 0.267-3.217-0.66-1.73-2.517-2.154-2.517-2.154s-0.699 1.499-0.024 3.275c0.678 1.774 2.274 2.096 2.274 2.096z"></path>
<path fill="#4e595d" d="M4.594 14.986c0 0 1.204-1.096 0.871-2.966-0.333-1.869-1.703-2.795-1.703-2.795s-1.373 1.319-1.049 3.143c0.324 1.82 1.88 2.618 1.88 2.618z"></path>
<path fill="#4e595d" d="M5.539 22.623c0 0-0.092-1.627-1.75-2.55-1.662-0.92-3.244-0.443-3.244-0.443s0.155 1.896 1.773 2.795c1.621 0.899 3.222 0.197 3.222 0.197z"></path>
<path fill="#4e595d" d="M8.338 25.78c0 0-0.451-1.565-2.273-2.096-1.825-0.531-3.261 0.287-3.261 0.287s0.575 1.814 2.351 2.333c1.779 0.52 3.183-0.524 3.183-0.524z"></path>
<path fill="#4e595d" d="M11.469 28.029c0 0-0.903-1.354-2.8-1.308-1.9 0.046-3.022 1.259-3.022 1.259s1.097 1.558 2.946 1.512c1.851-0.042 2.876-1.464 2.876-1.464z"></path>
<path fill="#4e595d" d="M12.805 28.946c-1.88 0.276-2.848 1.613-2.848 1.613s1.273 1.416 3.106 1.151c1.834-0.267 2.678-1.798 2.678-1.798s-1.057-1.237-2.936-0.966z"></path>
<path fill="#4e595d" d="M5.214 15.916l-0.906-0.036c-0.003 0.1-0.228 9.918 14.587 14.344l0.259-0.868c-14.107-4.215-13.956-13.067-13.94-13.44z"></path>
<path fill="#4e595d" d="M36.127 19.062c0 0 1.74 0.199 3.021-1.137 1.282-1.337 0.87-3.194 0.87-3.194s-1.653 0.007-2.971 1.379c-1.313 1.373-0.92 2.952-0.92 2.952z"></path>
<path fill="#4e595d" d="M31.403 16.108c0.282 1.831 1.819 2.667 1.819 2.667s1.227-1.066 0.941-2.944c-0.291-1.879-1.637-2.835-1.637-2.835s-1.405 1.284-1.123 3.112z"></path>
<path fill="#4e595d" d="M30.977 17.563c0 0-1.56 1.091-1.524 2.94 0.041 1.849 1.457 2.883 1.457 2.883s1.358-0.9 1.318-2.799c-0.042-1.898-1.252-3.023-1.252-3.023z"></path>
<path fill="#4e595d" d="M26.27 23.044c-0.132 1.844 1.179 3.002 1.179 3.002s1.434-0.764 1.573-2.662c0.136-1.896-0.962-3.128-0.962-3.128s-1.653 0.941-1.79 2.788z"></path>
<path fill="#4e595d" d="M22.836 25.132c-0.66 1.73 0.267 3.215 0.267 3.215s1.595-0.322 2.273-2.095c0.676-1.777-0.025-3.276-0.025-3.276s-1.853 0.425-2.515 2.156z"></path>
<path fill="#4e595d" d="M35.486 15.013c0 0 1.556-0.798 1.881-2.619 0.324-1.824-1.050-3.143-1.050-3.143s-1.371 0.926-1.702 2.795c-0.334 1.871 0.87 2.967 0.87 2.967z"></path>
<path fill="#4e595d" d="M36.289 20.099c-1.658 0.921-1.75 2.548-1.75 2.548s1.602 0.703 3.222-0.196c1.618-0.899 1.773-2.796 1.773-2.796s-1.582-0.479-3.244 0.444z"></path>
<path fill="#4e595d" d="M34.013 23.711c-1.822 0.531-2.273 2.096-2.273 2.096s1.406 1.042 3.185 0.525c1.777-0.517 2.351-2.333 2.351-2.333s-1.439-0.82-3.264-0.288z"></path>
<path fill="#4e595d" d="M31.411 26.747c-1.898-0.046-2.8 1.309-2.8 1.309s1.024 1.42 2.876 1.464c1.849 0.045 2.946-1.512 2.946-1.512s-1.12-1.213-3.022-1.26z"></path>
<path fill="#4e595d" d="M27.274 28.971c-1.88-0.271-2.935 0.964-2.935 0.964s0.845 1.532 2.677 1.799c1.834 0.266 3.106-1.152 3.106-1.152s-0.967-1.335-2.848-1.611z"></path>
<path fill="#4e595d" d="M35.772 15.904l-0.908 0.036c0.016 0.375 0.167 9.223-13.94 13.439l0.259 0.866c14.816-4.423 14.591-14.242 14.588-14.341z"></path>
<path fill="#4e595d" d="M23.575 10.469l3.15-3.202-4.587-0.613-2.099-4.067-2.101 4.048-4.585 0.612 3.15 3.202-0.599 4.877 4.133-2.246 4.135 2.26-0.599-4.871zM25.65 17.514l-5.613-3.067-5.607 3.047 0.812-6.615-4.429-4.502 6.348-0.848 2.881-5.552 2.875 5.572 6.349 0.849-4.429 4.501 0.813 6.616z"></path>
</svg>
