<?xml version="1.0" encoding="UTF-8"?>
<svg width="36px" height="26px" viewBox="0 0 36 26" version="1.1" xmlns="http://www.w3.org/2000/svg" xmlns:xlink="http://www.w3.org/1999/xlink">
    <!-- Generator: Sketch 50.2 (55047) - http://www.bohemiancoding.com/sketch -->
    <title>Icon/ic-filters</title>
    <desc>Created with Sketch.</desc>
    <defs>
        <path d="M32,28 L32,24 L36,24 L36,28 L42,28 L42,32 L36,32 L36,35.9515898 L32,35.9515898 L32,32 L6,32 L6,28 L32,28 Z M12,14 L12,10 L16,10 L16,14 L42,14 L42,18 L16,18 L16,21.9515898 L12,21.9515898 L12,18 L6,18 L6,14 L12,14 Z" id="path-1"></path>
    </defs>
    <g id="Base-Components" stroke="none" stroke-width="1" fill="none" fill-rule="evenodd">
        <g id="6.-Icon-Set" transform="translate(-110.000000, -1246.000000)">
            <g id="Group-3" transform="translate(104.000000, 156.000000)">
                <g id="icon-29-copy-4" transform="translate(0.000000, 1080.000000)">
                    <g id="Icon/ic-filters">
                        <rect id="icon/_base" x="0" y="0" width="48" height="48"></rect>
                        <mask id="mask-2" fill="white">
                            <use xlink:href="#path-1"></use>
                        </mask>
                        <use id="Combined-Shape" fill="#4E595D" fill-rule="nonzero" xlink:href="#path-1"></use>
                    </g>
                </g>
            </g>
        </g>
    </g>
</svg>