<!-- Generated by IcoMoon.io -->
<svg version="1.1" xmlns="http://www.w3.org/2000/svg"  viewBox="0 0 32 32">
<title>ic-guarantee</title>
<path fill="#595959" d="M29.557 6.819c0-1.251-0.752-2.096-2.016-2.255-0.239-0.033-0.486-0.060-0.725-0.087-0.712-0.087-1.384-0.16-2.029-0.299-2.521-0.552-4.963-1.69-7.664-3.579-0.446-0.313-0.938-0.599-1.517-0.599-0.572 0-1.064 0.286-1.51 0.592-3.612 2.481-6.866 3.746-10.232 3.958-1.457 0.093-2.222 0.918-2.222 2.388v2.648c-0.007 2.442-0.007 4.963 0.020 7.451 0.007 0.925 0.126 1.883 0.346 2.854 0.519 2.275 1.703 4.324 3.619 6.26 2.388 2.415 5.382 4.278 9.148 5.695 0.253 0.093 0.526 0.146 0.812 0.146 0.346 0 0.692-0.073 0.998-0.206 0.206-0.093 0.419-0.18 0.625-0.266l0.020-0.007c0.911-0.392 1.849-0.798 2.768-1.277 3.060-1.617 5.375-3.526 7.079-5.841 1.53-2.076 2.322-4.165 2.415-6.387 0.020-0.426 0.033-0.878 0.040-1.39l0.033-4.111v-1.67c0-1.344 0-2.681-0.007-4.018zM27.96 12.427v0.047l-0.033 4.125c-0.007 0.492-0.020 0.925-0.033 1.337-0.080 1.896-0.772 3.699-2.109 5.509-1.557 2.116-3.699 3.872-6.54 5.375-0.858 0.452-1.77 0.845-2.654 1.224l-0.020 0.007c-0.213 0.093-0.419 0.18-0.632 0.273-0.106 0.047-0.233 0.073-0.359 0.073-0.093 0-0.18-0.013-0.253-0.040-3.546-1.337-6.353-3.080-8.575-5.322-1.69-1.723-2.734-3.519-3.187-5.495-0.2-0.858-0.299-1.703-0.306-2.515-0.027-2.475-0.020-4.996-0.020-7.431v-2.648c0-0.306 0.047-0.532 0.14-0.625 0.087-0.093 0.293-0.153 0.592-0.173 3.666-0.239 7.172-1.583 11.030-4.245 0.299-0.206 0.499-0.306 0.605-0.306s0.306 0.106 0.605 0.313c2.881 2.009 5.502 3.227 8.236 3.825 0.718 0.16 1.43 0.239 2.189 0.326 0.239 0.027 0.472 0.053 0.712 0.087 0.466 0.060 0.619 0.226 0.619 0.672v4.012l-0.007 1.597z"></path>
<path fill="#595959" d="M21.836 14.259c-0.039-0.118-0.14-0.202-0.262-0.222l-3.66-0.52-1.647-3.31c-0.055-0.111-0.169-0.181-0.291-0.181v0c-0.123 0-0.236 0.070-0.291 0.183l-1.625 3.32-3.659 0.544c-0.123 0.019-0.224 0.104-0.262 0.222s-0.005 0.248 0.084 0.332l2.656 2.574-0.614 3.645c-0.022 0.123 0.029 0.246 0.13 0.318 0.055 0.041 0.123 0.063 0.19 0.063 0.053 0 0.104-0.012 0.152-0.039l3.267-1.731 3.277 1.712c0.048 0.024 0.099 0.036 0.149 0.036v0c0.178 0 0.325-0.147 0.325-0.325 0-0.026-0.002-0.051-0.010-0.075l-0.633-3.623 2.639-2.588c0.094-0.087 0.125-0.217 0.087-0.335z"></path>
</svg>
