<!-- Generated by IcoMoon.io -->
<svg version="1.1" xmlns="http://www.w3.org/2000/svg" viewBox="0 0 35 32">
<title>ic-globe</title>
<path fill="#4e595d" d="M34.283 13.294c-0.184-0.879-3.816-6.001-3.816-6.001s3.085-2.98 3.289-3.333c0.203-0.354 0.984-1.146-0.012-1.965-0.997-0.818-1.711-0.289-2.063 0.027-0.354 0.317-3.004 2.69-3.004 2.69s-5.378-3.916-6.267-3.985c-0.888-0.070-1.48 0.724-1.48 0.724l5.471 5.516-2.681 3.163-2.395-0.699-1.324 0.816c0 0 2.629 1.146 3.148 1.806s1.207 2.852 1.207 2.852l1.262-0.665-0.589-2.886 3.044-2.423 5.218 5.722c0.002 0 1.176-0.482 0.992-1.361z"></path>
<path fill="#4e595d" d="M21.998 12.925c-0.495-0.464-1.284-0.756-1.284-0.756-6.536 6.352-14.693 13.347-16.467 13.572-0.674 0.048-1.099-0.108-1.266-0.471-0.189-0.414-0.417-0.681 0.065-1.165l-1.379-3.073c-1.316 1.324-2.123 3.871-1.384 5.479 0.645 1.402 2.031 2.209 3.76 2.209 0.14 0 0.283-0.006 0.426-0.016 3.512-0.261 14.908-11.092 18.318-14.404-0.001-0.001-0.293-0.911-0.788-1.376z"></path>
<path fill="#4e595d" d="M3.927 17.455c0-7.471 6.056-13.527 13.527-13.527 0.755 0 1.502 0.062 2.235 0.184l0.678-0.91c-0.941-0.191-1.915-0.292-2.913-0.292-8.033 0-14.545 6.512-14.545 14.545 0 2.483 0.622 4.821 1.719 6.866l0.677-0.909c-0.902-1.836-1.379-3.861-1.379-5.957zM3.927 17.455c0-7.471 6.056-13.527 13.527-13.527 0.755 0 1.502 0.062 2.235 0.184l0.678-0.91c-0.941-0.191-1.915-0.292-2.913-0.292-8.033 0-14.545 6.512-14.545 14.545 0 2.483 0.622 4.821 1.719 6.866l0.677-0.909c-0.902-1.836-1.379-3.861-1.379-5.957zM31.718 14.591c0.185 0.926 0.282 1.883 0.282 2.863 0 8.033-6.512 14.545-14.545 14.545-3.469 0-6.654-1.214-9.154-3.241l0.93-0.563c2.34 1.795 5.205 2.786 8.224 2.786 7.471 0 13.527-6.056 13.527-13.527 0-0.777-0.065-1.546-0.195-2.3l0.931-0.563zM31.718 14.591c0.185 0.926 0.282 1.883 0.282 2.863 0 8.033-6.512 14.545-14.545 14.545-3.469 0-6.654-1.214-9.154-3.241l0.93-0.563c2.34 1.795 5.205 2.786 8.224 2.786 7.471 0 13.527-6.056 13.527-13.527 0-0.777-0.065-1.546-0.195-2.3l0.931-0.563z"></path>
</svg>
