<!-- Generated by IcoMoon.io -->
<svg version="1.1" xmlns="http://www.w3.org/2000/svg"  viewBox="0 0 32 32">
<title>ic-home-new</title>
<path d="M28.385 30.727c-0.612 0-1.193-0.244-1.636-0.686l-24.789-24.791c-0.679-0.679-0.871-1.652-0.503-2.539 0.367-0.887 1.192-1.438 2.151-1.438h21.602c3.042 0 5.517 2.475 5.517 5.518v21.604c0 1.286-1.050 2.333-2.343 2.333zM3.608 2.5c-0.461 0-0.843 0.255-1.019 0.681-0.177 0.426-0.087 0.875 0.239 1.202l24.789 24.791c0.27 0.27 0.567 0.326 0.767 0.326 0.549 0 1.116-0.414 1.116-1.106v-21.604c0-2.366-1.924-4.291-4.29-4.291h-21.602z"></path>
<path d="M13.883 10.922c-0.096 0-0.192-0.024-0.28-0.070-0.23-0.123-0.353-0.383-0.301-0.639l0.801-4.006-2.171 2.171c-0.231 0.231-0.607 0.231-0.838 0s-0.231-0.607 0-0.838l3.555-3.555c0.185-0.185 0.469-0.226 0.698-0.103 0.23 0.123 0.353 0.383 0.301 0.639l-0.801 4.006 2.172-2.171c0.231-0.231 0.607-0.231 0.838 0s0.231 0.607 0 0.838l-3.555 3.555c-0.115 0.114-0.267 0.173-0.419 0.173z"></path>
<path d="M17.386 14.476c-0.154 0-0.307-0.059-0.425-0.175l-1.801-1.801c-0.234-0.234-0.234-0.615 0-0.849l3.601-3.602c0.234-0.234 0.615-0.234 0.849 0l1.801 1.801c0.234 0.234 0.234 0.615 0 0.849s-0.615 0.234-0.849 0l-1.376-1.376-2.753 2.752 1.376 1.376c0.234 0.234 0.234 0.615 0 0.849-0.116 0.118-0.27 0.176-0.424 0.176z"></path>
<path d="M19.429 12.445c-0.163 0-0.325-0.062-0.45-0.185l-1.27-1.27c-0.248-0.248-0.248-0.65 0-0.898s0.65-0.248 0.898 0l1.27 1.27c0.248 0.248 0.248 0.65 0 0.898-0.123 0.123-0.286 0.185-0.448 0.185z"></path>
<path d="M22.636 19.555c-0.145 0-0.29-0.052-0.404-0.151-0.189-0.164-0.259-0.424-0.18-0.661l0.843-2.53-2.529 0.844c-0.235 0.079-0.497 0.007-0.661-0.18-0.163-0.189-0.197-0.458-0.085-0.68l2.466-4.935c0.153-0.305 0.522-0.427 0.827-0.276 0.305 0.153 0.428 0.523 0.276 0.828l-1.8 3.602 2.287-0.762c0.222-0.076 0.466-0.017 0.631 0.149 0.165 0.165 0.223 0.41 0.149 0.632l-0.762 2.288 3.6-1.801c0.306-0.152 0.674-0.028 0.827 0.276s0.028 0.675-0.276 0.828l-4.932 2.467c-0.090 0.039-0.185 0.062-0.279 0.062z"></path>
</svg>
