<!-- Generated by IcoMoon.io -->
<svg version="1.1" xmlns="http://www.w3.org/2000/svg"  viewBox="0 0 32 32">
<title>ic-help</title>
<path opacity="0.7" fill="#000" d="M16 30.667c8.1 0 14.667-6.567 14.667-14.667s-6.566-14.667-14.667-14.667c-8.1 0-14.667 6.566-14.667 14.667s6.566 14.667 14.667 14.667zM16 32c-8.837 0-16-7.163-16-16s7.163-16 16-16c8.837 0 16 7.163 16 16s-7.163 16-16 16z"></path>
<path opacity="0.7" fill="#000" d="M16.889 21.333h-1.778v-1.778h1.778v1.778zM18.729 14.444l-0.8 0.818c-0.64 0.649-1.040 1.182-1.040 2.516h-1.778v-0.444c0-0.978 0.4-1.867 1.040-2.516l1.102-1.12c0.329-0.32 0.524-0.764 0.524-1.253 0-0.978-0.8-1.778-1.778-1.778s-1.778 0.8-1.778 1.778h-1.778c0-1.964 1.591-3.556 3.556-3.556s3.556 1.591 3.556 3.556c0 0.782-0.32 1.493-0.827 2v0z"></path>
</svg>
