<!-- Generated by IcoMoon.io -->
<svg version="1.1" xmlns="http://www.w3.org/2000/svg"  viewBox="0 0 32 32">
<title>ic-heart-border</title>
<path fill="#979797" d="M21.6 3c-2.8 0-5.577 3.219-5.6 3.219s-2.8-3.219-5.6-3.219c-5.6 0-8.4 3.763-8.4 8.397 0 8.4 14 16.8 14 16.8s14-8.4 14-16.8c0-4.634-2.8-8.397-8.4-8.397zM21.6 1c6.41 0 10.4 4.332 10.4 10.397 0 4.4-2.901 8.752-7.662 13.037-1.597 1.437-3.3 2.766-5.003 3.958-0.596 0.418-1.151 0.789-1.651 1.11-0.305 0.196-0.527 0.334-0.654 0.41l-1.029 0.617-1.029-0.617c-0.127-0.076-0.349-0.214-0.654-0.41-0.5-0.321-1.055-0.693-1.651-1.11-1.703-1.192-3.406-2.521-5.003-3.958-4.761-4.285-7.662-8.636-7.662-13.037 0-6.065 3.99-10.397 10.4-10.397 2.112 0 4.162 1.080 5.6 2.69 1.438-1.609 3.488-2.69 5.6-2.69z"></path>
</svg>
