<?xml version="1.0" encoding="UTF-8"?>
<svg width="44px" height="30px" viewBox="0 0 44 30" version="1.1" xmlns="http://www.w3.org/2000/svg" xmlns:xlink="http://www.w3.org/1999/xlink">
    <!-- Generator: Sketch 50.2 (55047) - http://www.bohemiancoding.com/sketch -->
    <title>Icon/ic-ic-glasses</title>
    <desc>Created with Sketch.</desc>
    <defs>
        <path d="M4.25308333,22.5196066 C3.82776152,22.2464474 3.70493152,21.6799627 3.97809078,21.2546409 L11.2983925,9.86811606 C12.0482055,8.69848108 13.3296708,8 14.7192998,8 C16.2702578,8 17.6635534,8.86164332 18.3583679,10.2476058 L20.2374836,14.0058373 C20.4629775,14.4586584 20.2796492,15.0086435 19.8268281,15.2359706 C19.3776736,15.4614645 18.8240219,15.2799694 18.5948615,14.8253151 L16.7157457,11.0670836 C16.3344227,10.3062709 15.5699434,9.83328367 14.7192998,9.83328367 C13.9548205,9.83328367 13.2545061,10.21644 12.8420173,10.8599225 L5.52171563,22.2464474 C5.3457204,22.5177734 5.05056173,22.6662693 4.74990321,22.6662693 C4.57940782,22.6662693 4.40707916,22.6204372 4.25308333,22.5196066 Z M45.4139682,24.5618847 C45.8154574,24.7177138 46.0537842,25.1320359 45.9896193,25.559191 C45.9217878,25.9845128 45.5661308,26.3071707 45.1353091,26.3310034 C44.708154,26.3548361 44.5321588,26.5014988 44.436828,26.6114958 C43.9180088,27.1999799 44.0335056,28.771104 44.1086703,29.8087425 C44.1380028,30.2212313 44.1655021,30.6025543 44.1655021,30.9160458 C44.1655021,33.2993146 42.2350544,37.3325387 34.9990837,37.3325387 C29.3159044,37.3325387 27.2204611,34.3222869 26.476148,32.5275022 C26.2029887,31.8675201 26.056326,31.1635391 25.9664951,30.4485585 C25.8894972,30.3147288 25.8326654,30.1662328 25.8326654,29.999404 C25.8326654,29.5429164 25.2643474,29.0827622 23.9993817,29.0827622 C22.734416,29.0827622 22.166098,29.5429164 22.166098,29.999404 C22.166098,30.1662328 22.1092663,30.3147288 22.0304351,30.4485585 C21.9406042,31.1635391 21.7939415,31.8675201 21.5207822,32.5275022 C20.7783023,34.3222869 18.6828591,37.3325387 12.9996797,37.3325387 C5.76370907,37.3325387 3.83326137,33.2993146 3.83326137,30.9160458 C3.83326137,30.6025543 3.86076063,30.2212313 3.89192645,29.8087425 C3.96709108,28.7692707 4.08075467,27.1999799 3.56376867,26.6114958 C3.46843792,26.5033321 3.29060941,26.3566694 2.8652876,26.3310034 C2.43263265,26.3071707 2.0788089,25.9845128 2.01097741,25.559191 C1.94314591,25.1338692 2.18147279,24.7177138 2.58479519,24.5618847 C2.7864564,24.4848867 7.54199423,22.6662693 12.9996797,22.6662693 C16.4425864,22.6662693 19.225511,23.4032494 21.2567893,23.9404015 C22.3879254,24.24106 23.3668989,24.499553 23.9993817,24.499553 C24.6318646,24.499553 25.6108381,24.24106 26.7419741,23.9404015 C28.7732524,23.4032494 31.556177,22.6662693 34.9990837,22.6662693 C40.4567692,22.6662693 45.212307,24.4848867 45.4139682,24.5618847 Z M28.1719353,15.2359706 C27.7191143,15.0104767 27.5376192,14.4586584 27.7649464,14.0058373 L29.6440621,10.2476058 C30.3370434,8.86164332 31.7285057,8 33.2794636,8 C34.6690927,8 35.9505579,8.69848108 36.700371,9.86811606 L44.0206726,21.2528076 C44.2956652,21.6799627 44.1710019,22.2464474 43.7456801,22.5196066 C43.5916843,22.618604 43.4193556,22.6662693 43.2488602,22.6662693 C42.9482017,22.6662693 42.653043,22.5177734 42.4770478,22.2464474 L35.1567461,10.8599225 C34.7460906,10.21644 34.0439429,9.83328367 33.2794636,9.83328367 C32.42882,9.83328367 31.6643407,10.3062709 31.2811844,11.0670836 L29.4020687,14.8253151 C29.1747415,15.2799694 28.6265897,15.4632978 28.1719353,15.2359706 Z" id="path-1"></path>
    </defs>
    <g id="Base-Components" stroke="none" stroke-width="1" fill="none" fill-rule="evenodd">
        <g id="6.-Icon-Set" transform="translate(-378.000000, -1244.000000)">
            <g id="Group-3" transform="translate(104.000000, 156.000000)">
                <g id="icon-29-copy-5" transform="translate(272.000000, 1080.000000)">
                    <g id="Icon/ic-ic-glasses">
                        <rect id="icon/_base" x="0" y="0" width="48" height="48"></rect>
                        <mask id="mask-2" fill="white">
                            <use xlink:href="#path-1"></use>
                        </mask>
                        <use id="Combined-Shape" fill="#4E595D" fill-rule="nonzero" xlink:href="#path-1"></use>
                    </g>
                </g>
            </g>
        </g>
    </g>
</svg>