<!-- Generated by IcoMoon.io -->
<svg version="1.1" xmlns="http://www.w3.org/2000/svg" viewBox="0 0 22 32">
<title>ic-lock</title>
<path opacity="0.7" fill="#000" d="M19.2 14.4v-6.4c0-4.411-3.589-8-8-8s-8 3.589-8 8v6.4c-1.765 0-3.2 1.434-3.2 3.2v11.2c0 1.765 1.435 3.2 3.2 3.2h16c1.765 0 3.2-1.435 3.2-3.2v-11.2c0-1.766-1.435-3.2-3.2-3.2zM11.2 25.6c-1.325 0-2.4-1.075-2.4-2.4s1.074-2.4 2.4-2.4c1.326 0 2.4 1.075 2.4 2.4s-1.075 2.4-2.4 2.4zM16 14.4h-9.6v-6.4c0-2.646 2.154-4.8 4.8-4.8s4.8 2.154 4.8 4.8v6.4z"></path>
</svg>
