<!-- Generated by IcoMoon.io -->
<svg version="1.1" xmlns="http://www.w3.org/2000/svg" viewBox="0 0 36 32">
<title>ic-menu</title>
<path opacity="0.7" fill="#000" d="M33.778 17.778h-32c-0.981 0-1.778-0.796-1.778-1.778s0.796-1.778 1.778-1.778h32c0.981 0 1.778 0.796 1.778 1.778s-0.796 1.778-1.778 1.778v0zM33.778 3.556h-32c-0.981 0-1.778-0.796-1.778-1.778s0.796-1.778 1.778-1.778h32c0.981 0 1.778 0.796 1.778 1.778s-0.796 1.778-1.778 1.778v0zM1.778 28.444h32c0.981 0 1.778 0.796 1.778 1.778s-0.796 1.778-1.778 1.778h-32c-0.981 0-1.778-0.796-1.778-1.778s0.796-1.778 1.778-1.778v0z"></path>
</svg>
