<!-- Generated by IcoMoon.io -->
<svg version="1.1" xmlns="http://www.w3.org/2000/svg" viewBox="0 0 29 32">
<title>ic-order-status</title>
<path opacity="0.7" fill="#000" d="M15.799 14.060c0.148 0.148 0.347 0.225 0.546 0.225s0.391-0.077 0.546-0.225l4.743-4.743c0.302-0.302 0.302-0.789 0-1.091s-0.789-0.302-1.091 0l-4.197 4.203-1.694-1.694c-0.302-0.302-0.789-0.302-1.091 0s-0.302 0.789 0 1.091l2.24 2.233z"></path>
<path opacity="0.7" fill="#000" d="M8.199 20.43h17.257c1.906 0 3.453-1.553 3.453-3.453v-7.271c0-0.424-0.347-0.77-0.77-0.77s-0.77 0.347-0.77 0.77v7.265c0 1.059-0.86 1.912-1.912 1.912h-17.257c-1.059 0-1.912-0.86-1.912-1.912v-14.196c0-0.026 0-0.058-0.006-0.083v-0.019c0-0.019-0.006-0.038-0.006-0.051s-0.006-0.032-0.013-0.045c0-0.006-0.006-0.019-0.006-0.026-0.006-0.019-0.013-0.032-0.019-0.051 0-0.006-0.006-0.013-0.006-0.019-0.006-0.013-0.013-0.032-0.019-0.045-0.006-0.006-0.006-0.019-0.013-0.026-0.006-0.013-0.013-0.026-0.019-0.038s-0.013-0.019-0.019-0.032c-0.006-0.006-0.013-0.019-0.019-0.026-0.006-0.013-0.019-0.026-0.026-0.032s-0.013-0.013-0.019-0.019-0.019-0.026-0.032-0.038c-0.006-0.006-0.013-0.013-0.019-0.013-0.013-0.013-0.026-0.026-0.038-0.032-0.006-0.006-0.013-0.013-0.019-0.019-0.013-0.006-0.026-0.019-0.038-0.026-0.013-0.013-0.032-0.019-0.045-0.032-0.006 0-0.013-0.006-0.013-0.013-0.026-0.013-0.051-0.026-0.077-0.038l-4.743-1.989c-0.391-0.167-0.841 0.019-1.008 0.411-0.167 0.385 0.019 0.841 0.411 1.008l4.268 1.803v19.099c0 1.81 1.393 3.292 3.164 3.44-0.359 0.539-0.571 1.187-0.571 1.887 0 1.88 1.534 3.414 3.414 3.414s3.414-1.534 3.414-3.414c0-0.693-0.205-1.335-0.558-1.874h8.169c-0.353 0.539-0.558 1.181-0.558 1.874 0 1.88 1.534 3.414 3.414 3.414s3.414-1.534 3.414-3.414c0-1.88-1.534-3.414-3.414-3.414h-16.429c-1.059 0-1.912-0.86-1.912-1.912v-2.535c0.545 0.366 1.207 0.584 1.912 0.584zM12.62 27.708c0 1.033-0.841 1.874-1.874 1.874s-1.874-0.841-1.874-1.874c0-1.033 0.841-1.874 1.874-1.874s1.874 0.841 1.874 1.874zM26.495 27.708c0 1.033-0.841 1.874-1.874 1.874s-1.874-0.841-1.874-1.874c0-1.033 0.841-1.874 1.874-1.874s1.874 0.841 1.874 1.874z"></path>
</svg>
