<!-- Generated by IcoMoon.io -->
<svg version="1.1" xmlns="http://www.w3.org/2000/svg"  viewBox="0 0 32 32">
<title>ic-open-new-tab</title>
<path fill="#4e595d" d="M28.252 2.333h-7.364c-0.552 0-1-0.448-1-1s0.448-1 1-1h9.778c0.552 0 1 0.448 1 1v9.778c0 0.552-0.448 1-1 1s-1-0.448-1-1v-7.364l-16.219 16.219c-0.391 0.391-1.024 0.391-1.414 0s-0.391-1.024 0-1.414l16.219-16.219zM24.778 17.63c0-0.552 0.448-1 1-1s1 0.448 1 1v9.778c0 2.352-1.907 4.259-4.259 4.259h-17.926c-2.352 0-4.259-1.907-4.259-4.259v-17.926c0-2.352 1.907-4.259 4.259-4.259h9.778c0.552 0 1 0.448 1 1s-0.448 1-1 1h-9.778c-1.248 0-2.259 1.011-2.259 2.259v17.926c0 1.248 1.012 2.259 2.259 2.259h17.926c1.248 0 2.259-1.012 2.259-2.259v-9.778z"></path>
</svg>
