<!-- Generated by IcoMoon.io -->
<svg version="1.1" xmlns="http://www.w3.org/2000/svg"  viewBox="0 0 32 32">
<title>ic-pay</title>
<path fill="#595959" d="M17.355 22.565h-15.156c-0.347 0-0.628-0.281-0.628-0.628v-11.949h26.732v1.571c0 0.432 0.353 0.785 0.785 0.785s0.785-0.353 0.785-0.785v-5.661c0-1.211-0.988-2.199-2.199-2.199h-25.476c-1.217 0-2.199 0.988-2.199 2.199v16.039c0 1.211 0.988 2.199 2.199 2.199h15.162c0.432 0 0.785-0.353 0.785-0.785s-0.353-0.785-0.792-0.785zM2.199 5.269h25.476c0.347 0 0.628 0.281 0.628 0.628v2.519h-26.739v-2.519c0-0.347 0.288-0.628 0.635-0.628z"></path>
<path fill="#595959" d="M15.719 15.818c0-0.432-0.353-0.785-0.785-0.785h-9.436c-0.432 0-0.785 0.353-0.785 0.785s0.353 0.785 0.785 0.785h9.436c0.438 0 0.785-0.353 0.785-0.785z"></path>
<path fill="#595959" d="M5.497 17.847c-0.432 0-0.785 0.353-0.785 0.785s0.353 0.785 0.785 0.785h3.776c0.432 0 0.785-0.353 0.785-0.785s-0.353-0.785-0.785-0.785h-3.776z"></path>
<path fill="#595959" d="M5.405 13.757h9.436c0.432 0 0.785-0.353 0.785-0.785s-0.353-0.785-0.785-0.785h-9.436c-0.432 0-0.785 0.353-0.785 0.785s0.347 0.785 0.785 0.785z"></path>
<path fill="#595959" d="M31.169 19.162h-1.152v-1.832c0-2.271-1.852-4.123-4.123-4.123s-4.123 1.852-4.123 4.123v1.832h-1.152c-0.432 0-0.785 0.353-0.785 0.785v6.806c0 0.432 0.353 0.785 0.785 0.785h10.542c0.432 0 0.785-0.353 0.785-0.785v-6.806c0.007-0.438-0.347-0.785-0.779-0.785zM23.342 17.323c0-1.407 1.145-2.552 2.552-2.552s2.552 1.145 2.552 2.552v1.832h-5.104v-1.832zM30.384 25.961h-8.978v-5.235h8.972v5.235h0.007z"></path>
</svg>
