<!-- Generated by IcoMoon.io -->
<svg version="1.1" xmlns="http://www.w3.org/2000/svg"  viewBox="0 0 32 32">
<title>ic-return</title>
<path fill="#5d5c5d" d="M26.414 3.936c2.857 2.507 4.73 5.955 5.273 9.71l-1.864 0.273c-0.478-3.308-2.129-6.346-4.647-8.555-2.542-2.231-5.803-3.459-9.181-3.459-5.198 0-9.95 2.911-12.358 7.491l1.741 0.546-4.142 3.841-1.236-5.529 1.812 0.569c2.677-5.377 8.167-8.813 14.183-8.813 3.833 0 7.533 1.394 10.418 3.926zM31.991 23.67l-1.812-0.569c-2.677 5.377-8.167 8.812-14.184 8.812-3.833 0-7.533-1.394-10.418-3.926-2.857-2.507-4.73-5.955-5.273-9.71l1.864-0.273c0.478 3.308 2.129 6.346 4.647 8.555 2.542 2.231 5.803 3.459 9.181 3.459 5.198 0 9.95-2.911 12.358-7.491l-1.741-0.546 4.142-3.84 1.236 5.529z"></path>
</svg>
