<!-- Generated by IcoMoon.io -->
<svg version="1.1" xmlns="http://www.w3.org/2000/svg"  viewBox="0 0 32 32">
<title>ic-ship</title>
<path fill="#595959" d="M30.257 9.855c-1.066-1.153-2.581-1.783-4.264-1.783h-4.391v-2.467c0-0.442-0.362-0.805-0.805-0.805h-19.992c-0.443 0-0.805 0.362-0.805 0.805v17.693c0 0.442 0.362 0.805 0.805 0.805h3.205c0.261 1.488 1.555 2.621 3.118 2.621s2.856-1.133 3.118-2.621h12.316c0.261 1.488 1.555 2.621 3.118 2.621s2.856-1.133 3.118-2.621h2.4c0.442 0 0.805-0.362 0.805-0.805v-8.313c-0.007-2.125-0.603-3.902-1.743-5.129zM1.609 6.409h18.383v16.090h-9.889c-0.436-1.22-1.609-2.098-2.977-2.098s-2.541 0.878-2.977 2.098h-2.541v-16.090zM7.127 25.114c-0.858 0-1.555-0.697-1.555-1.555s0.697-1.555 1.555-1.555c0.858 0 1.555 0.697 1.555 1.555s-0.697 1.555-1.555 1.555zM25.678 25.114c-0.858 0-1.555-0.697-1.555-1.555s0.697-1.555 1.555-1.555c0.858 0 1.555 0.697 1.555 1.555s-0.697 1.555-1.555 1.555zM30.384 22.493h-1.73c-0.436-1.22-1.609-2.098-2.977-2.098s-2.541 0.878-2.977 2.098h-1.093v-12.812h4.391c2.709 0 4.391 2.031 4.391 5.303v7.509h-0.007z"></path>
</svg>
