<!-- Generated by IcoMoon.io -->
<svg version="1.1" xmlns="http://www.w3.org/2000/svg" viewBox="0 0 29 32">
<title>ic-secure</title>
<path fill="#4e595d" d="M28.277 4.479c-0.058-0.413-0.355-0.752-0.758-0.864l-12.904-3.577c-0.184-0.051-0.378-0.051-0.562 0l-12.904 3.577c-0.403 0.112-0.7 0.451-0.758 0.864-0.075 0.536-1.782 13.21 2.597 19.515 4.374 6.297 10.828 7.911 11.1 7.977 0.081 0.020 0.164 0.029 0.246 0.029s0.165-0.010 0.246-0.029c0.273-0.066 6.726-1.68 11.1-7.977 4.38-6.305 2.672-18.979 2.597-19.515zM19.125 11.667c0.848 0 1.542 0.686 1.542 1.524v7.619c0 0.838-0.694 1.524-1.542 1.524h-9.25c-0.848 0-1.542-0.686-1.542-1.524v-7.619c0-0.838 0.694-1.524 1.542-1.524h0.771v-1.524c0-2.103 1.727-3.81 3.854-3.81s3.854 1.707 3.854 3.81v1.524h0.771zM15.189 17.6c0.504-0.251 0.853-0.768 0.853-1.362 0-0.838-0.694-1.524-1.542-1.524s-1.542 0.686-1.542 1.524c0 0.594 0.348 1.111 0.853 1.362l-0.853 1.686h3.083l-0.853-1.686zM16.89 11.667v-1.524c0-1.303-1.071-2.362-2.39-2.362s-2.39 1.059-2.39 2.362v1.524h4.779z"></path>
</svg>
