<!-- Generated by IcoMoon.io -->
<svg version="1.1" xmlns="http://www.w3.org/2000/svg"  viewBox="0 0 32 32">
<title>ic-simple-checkout</title>
<path opacity="0.7" fill="#000" d="M31.321 21.177c-3.442-2.364-8.007-3.448-9.626-3.775l-0.803-6.668c-0.026-1.495-1.254-2.704-2.756-2.704-1.482 0-2.678 1.143-2.749 2.612 0 0.026-0.007 0.052-0.007 0.078v3.951l-0.065 9.613-1.012-0.777c-1.241-1.084-4.167-2.416-6.511 0.157-0.255 0.281-0.281 0.692-0.059 0.999 0.065 0.091 1.646 2.305 4.16 4.689 0.32 0.307 0.829 0.287 1.13-0.033s0.287-0.829-0.033-1.13c-1.665-1.58-2.919-3.102-3.533-3.892 1.731-1.293 3.592 0.229 3.807 0.424 0.013 0.013 0.026 0.020 0.039 0.033l2.312 1.783c0.242 0.183 0.568 0.222 0.836 0.085 0.274-0.131 0.444-0.411 0.451-0.712l0.078-11.233v-3.938c0.020-0.627 0.522-1.117 1.156-1.117s1.156 0.516 1.156 1.156c0 0.033 0 0.065 0.007 0.098l0.875 7.295c0.039 0.353 0.313 0.633 0.66 0.692 0.052 0.007 5.447 0.934 9.3 3.442 0.144 0.927 0.47 3.709-0.176 6.269-0.111 0.431 0.15 0.862 0.581 0.973 0.065 0.020 0.131 0.026 0.196 0.026 0.359 0 0.686-0.242 0.777-0.607 0.875-3.474 0.17-7.138 0.144-7.288-0.046-0.202-0.163-0.385-0.333-0.503z"></path>
<path opacity="0.7" fill="#000" d="M6.805 2.035c-3.749 0-6.805 3.050-6.805 6.805 0 3.749 3.050 6.805 6.805 6.805 3.383 0 6.211-2.423 6.727-5.76 0.052-0.346 0.078-0.699 0.078-1.045 0-0.444-0.359-0.803-0.803-0.803s-0.803 0.359-0.803 0.803c0 0.268-0.020 0.536-0.059 0.803-0.385 2.508-2.599 4.402-5.14 4.402-2.867 0-5.205-2.331-5.205-5.205s2.331-5.205 5.205-5.205c1.541 0 2.998 0.686 3.977 1.855l-3.82 3.794-2.155-2.168c-0.313-0.313-0.816-0.313-1.13-0.007-0.313 0.313-0.313 0.816-0.007 1.13l2.717 2.736c0.15 0.15 0.353 0.235 0.568 0.235v0c0.209 0 0.411-0.085 0.562-0.235l8.274-8.229c0.313-0.313 0.313-0.816 0.007-1.13-0.313-0.313-0.816-0.313-1.13-0.007l-2.749 2.736c-1.28-1.456-3.141-2.312-5.113-2.312z"></path>
</svg>
