<?xml version="1.0" encoding="UTF-8"?>
<svg width="43px" height="48px" viewBox="0 0 43 48" version="1.1" xmlns="http://www.w3.org/2000/svg" xmlns:xlink="http://www.w3.org/1999/xlink">
    <!-- Generator: Sketch 50.2 (55047) - http://www.bohemiancoding.com/sketch -->
    <title>Icon/ic-secure</title>
    <desc>Created with Sketch.</desc>
    <defs>
        <path d="M44.4156571,6.71784783 C44.3291984,6.09896797 43.8824253,5.58989274 43.2784736,5.42257139 L23.9218009,0.0574121399 C23.6458466,-0.01913738 23.3543633,-0.01913738 23.0781991,0.0574121399 L3.72152642,5.42257139 C3.11757472,5.58989274 2.67080156,6.09875882 2.58434288,6.71784783 C2.4720725,7.5224544 -0.0891611372,26.5335068 6.48023001,35.990928 C13.0418567,45.4370551 22.721662,47.8577768 23.1304521,47.9562873 C23.2519559,47.9855685 23.3757681,48 23.5,48 C23.6242319,48 23.7480441,47.9853594 23.8695479,47.9562873 C24.2785479,47.8577768 33.9583532,45.4370551 40.51977,35.990928 C47.0891611,26.5337159 44.5279275,7.52266355 44.4156571,6.71784783 Z M30.6875,17.5 C31.959375,17.5 33,18.5285714 33,19.7857143 L33,31.2142857 C33,32.4714286 31.959375,33.5 30.6875,33.5 L16.8125,33.5 C15.540625,33.5 14.5,32.4714286 14.5,31.2142857 L14.5,19.7857143 C14.5,18.5285714 15.540625,17.5 16.8125,17.5 L17.96875,17.5 L17.96875,15.2142857 C17.96875,12.06 20.55875,9.5 23.75,9.5 C26.94125,9.5 29.53125,12.06 29.53125,15.2142857 L29.53125,17.5 L30.6875,17.5 Z M24.783561,26.4003215 C25.5402748,26.0235703 26.0625,25.2477095 26.0625,24.3571429 C26.0625,23.1 25.021875,22.0714286 23.75,22.0714286 C22.478125,22.0714286 21.4375,23.1 21.4375,24.3571429 C21.4375,25.2477095 21.9597252,26.0235703 22.716439,26.4003215 L21.4375,28.9285714 L26.0625,28.9285714 L24.783561,26.4003215 Z M27.334375,17.5 L27.334375,15.2142857 C27.334375,13.26 25.7271875,11.6714286 23.75,11.6714286 C21.7728125,11.6714286 20.165625,13.26 20.165625,15.2142857 L20.165625,17.5 L27.334375,17.5 Z" id="path-1"></path>
    </defs>
    <g id="Base-Components" stroke="none" stroke-width="1" fill="none" fill-rule="evenodd">
        <g id="6.-Icon-Set" transform="translate(-650.000000, -1164.000000)">
            <g id="Group-3" transform="translate(104.000000, 156.000000)">
                <g id="icon-29-copy-3" transform="translate(544.000000, 1008.000000)">
                    <g id="Icon/ic-secure">
                        <rect id="icon/_base" x="0" y="0" width="48" height="48"></rect>
                        <mask id="mask-2" fill="white">
                            <use xlink:href="#path-1"></use>
                        </mask>
                        <use id="Shape" fill="#4E595D" fill-rule="nonzero" xlink:href="#path-1"></use>
                    </g>
                </g>
            </g>
        </g>
    </g>
</svg>