<!-- Generated by IcoMoon.io -->
<svg version="1.1" xmlns="http://www.w3.org/2000/svg" viewBox="0 0 26 32">
<title>ic-teacup</title>
<path d="M4.594 7.184c-0.212 0-0.418-0.102-0.545-0.291-0.2-0.3-0.119-0.705 0.182-0.905 0.533-0.355 0.505-0.622-0.183-1.782-0.529-0.888-1.415-2.377 0.183-3.443 0.299-0.201 0.705-0.119 0.905 0.182 0.2 0.299 0.119 0.705-0.182 0.905-0.457 0.306-0.492 0.499 0.215 1.689 0.541 0.909 1.445 2.429-0.214 3.536-0.112 0.074-0.238 0.11-0.362 0.11z"></path>
<path d="M9.787 7.184c-0.212 0-0.418-0.102-0.545-0.291-0.2-0.3-0.119-0.705 0.182-0.905 0.533-0.355 0.505-0.622-0.184-1.782-0.528-0.888-1.413-2.377 0.184-3.443 0.3-0.201 0.705-0.119 0.905 0.182 0.2 0.299 0.119 0.705-0.182 0.905-0.457 0.306-0.492 0.499 0.216 1.689 0.541 0.909 1.445 2.429-0.214 3.536-0.111 0.074-0.238 0.11-0.362 0.11z"></path>
<path d="M15.011 7.184c-0.212 0-0.418-0.102-0.545-0.291-0.2-0.3-0.119-0.705 0.182-0.905 0.533-0.355 0.505-0.622-0.184-1.782-0.528-0.888-1.413-2.377 0.184-3.443 0.3-0.201 0.705-0.119 0.905 0.182 0.2 0.299 0.119 0.705-0.182 0.905-0.458 0.306-0.494 0.498 0.214 1.689 0.541 0.909 1.445 2.429-0.214 3.536-0.11 0.074-0.236 0.11-0.361 0.11z"></path>
<path d="M21.551 22.857h-2.612c-0.36 0-0.653-0.293-0.653-0.653s0.293-0.653 0.653-0.653h2.612c1.080 0 1.959-0.879 1.959-1.959v-5.224c0-1.080-0.879-1.959-1.959-1.959h-2.612c-0.36 0-0.653-0.293-0.653-0.653s0.293-0.653 0.653-0.653h2.612c1.8 0 3.265 1.465 3.265 3.265v5.225c0 1.801-1.465 3.265-3.265 3.265z"></path>
<path d="M18.939 8.49h-12.408v6.531h0.923l1.689 1.689v4.842h-6.531v-4.842l1.689-1.689h0.923v-6.531h-4.571c-0.36 0-0.653 0.293-0.653 0.653v18.286c0 2.521 2.051 4.571 4.571 4.571h10.449c2.521 0 4.571-2.051 4.571-4.571v-18.286c0-0.361-0.293-0.653-0.653-0.653z"></path>
</svg>
