<!-- Generated by IcoMoon.io -->
<svg version="1.1" xmlns="http://www.w3.org/2000/svg"  viewBox="0 0 32 32">
<title>ic-time</title>
<path fill="#575757" d="M18.997 29.054c0.681-0.171 1.371 0.247 1.54 0.935s-0.245 1.384-0.926 1.555c-0.311 0.078-0.627 0.148-0.941 0.206-0.35 0.066-0.693-0.021-0.963-0.212-0.262-0.187-0.455-0.472-0.517-0.815-0.128-0.697 0.328-1.367 1.018-1.496 0.264-0.049 0.529-0.107 0.79-0.173zM28.393 11.848c-0.084-0.257-0.178-0.516-0.277-0.768-0.261-0.658 0.056-1.405 0.708-1.668s1.391 0.057 1.652 0.716c0.118 0.299 0.23 0.607 0.33 0.914 0.221 0.673-0.141 1.399-0.807 1.622-0.397 0.133-0.814 0.057-1.132-0.17-0.215-0.153-0.385-0.374-0.474-0.645zM23.126 27.221c0.586-0.391 1.373-0.229 1.76 0.363s0.226 1.388-0.36 1.779c-0.267 0.178-0.542 0.35-0.819 0.511-0.443 0.258-0.976 0.216-1.368-0.062-0.146-0.105-0.273-0.241-0.368-0.408-0.351-0.614-0.143-1.399 0.465-1.754 0.233-0.136 0.464-0.28 0.689-0.43zM31.596 15.433c0.013 0.323 0.015 0.65 0.008 0.974-0.016 0.709-0.596 1.271-1.298 1.255-0.262-0.006-0.504-0.092-0.703-0.234-0.334-0.238-0.549-0.634-0.539-1.079 0.006-0.27 0.003-0.545-0.007-0.816-0.027-0.708 0.519-1.305 1.22-1.333s1.292 0.524 1.32 1.232zM28.186 23.844c0.561 0.426 0.675 1.23 0.254 1.797-0.193 0.259-0.395 0.516-0.603 0.762-0.429 0.509-1.167 0.596-1.698 0.218-0.032-0.022-0.063-0.046-0.093-0.072-0.534-0.46-0.598-1.27-0.144-1.81 0.174-0.206 0.344-0.421 0.505-0.638 0.421-0.567 1.217-0.683 1.779-0.257zM30.054 19.204c0.669 0.212 1.042 0.932 0.832 1.609-0.096 0.307-0.202 0.616-0.316 0.919-0.25 0.663-0.984 0.995-1.639 0.742-0.102-0.039-0.195-0.090-0.28-0.15-0.463-0.33-0.666-0.946-0.455-1.506 0.096-0.254 0.185-0.514 0.265-0.773 0.21-0.676 0.923-1.053 1.592-0.841z"></path>
<path fill="#575757" d="M13.453 29.238c-1.136-0.206-2.226-0.557-3.259-1.046-0.012-0.007-0.023-0.014-0.036-0.020-0.244-0.116-0.487-0.24-0.722-0.369-0.001-0.001-0.002-0.002-0.004-0.002-0.432-0.24-0.854-0.506-1.264-0.798-5.977-4.254-7.414-12.627-3.204-18.665 0.916-1.313 2.024-2.408 3.259-3.276 0.015-0.011 0.031-0.021 0.046-0.032 4.353-3.030 10.264-3.234 14.886-0.121l-0.993 1.449c-0.276 0.403-0.106 0.697 0.377 0.653l4.312-0.39c0.484-0.044 0.773-0.467 0.643-0.938l-1.158-4.215c-0.129-0.473-0.462-0.529-0.738-0.126l-0.995 1.453c-3.392-2.3-7.46-3.178-11.499-2.47-0.407 0.071-0.808 0.158-1.203 0.259-0.003 0.001-0.006 0.001-0.008 0.002-0.015 0.004-0.031 0.009-0.046 0.013-3.482 0.904-6.52 2.955-8.688 5.883-0.018 0.022-0.037 0.043-0.054 0.067-0.072 0.098-0.144 0.198-0.214 0.299-0.115 0.165-0.228 0.333-0.335 0.502-0.014 0.021-0.024 0.041-0.036 0.062-1.789 2.801-2.652 6.038-2.504 9.334 0 0.011-0 0.022 0 0.033 0.014 0.322 0.040 0.649 0.074 0.97 0.002 0.021 0.006 0.040 0.010 0.061 0.035 0.323 0.080 0.647 0.136 0.971 0.567 3.304 2.11 6.277 4.422 8.591 0.005 0.005 0.011 0.011 0.016 0.017 0.002 0.002 0.004 0.003 0.006 0.005 0.621 0.619 1.297 1.191 2.024 1.709 1.904 1.355 4.024 2.251 6.3 2.664 0.691 0.125 1.351-0.339 1.475-1.037s-0.335-1.365-1.026-1.49z"></path>
<path fill="#575757" d="M15.024 5.681c-0.568 0-1.028 0.466-1.028 1.039v10.347l9.368 4.892c0.151 0.079 0.312 0.116 0.471 0.116 0.372 0 0.732-0.205 0.914-0.562 0.26-0.509 0.063-1.136-0.441-1.399l-8.256-4.312v-9.083c0-0.573-0.459-1.039-1.027-1.039z"></path>
</svg>
