<!-- Generated by IcoMoon.io -->
<svg version="1.1" xmlns="http://www.w3.org/2000/svg" viewBox="0 0 30 32">
<title>ic-user</title>
<path opacity="0.7" fill="#000" d="M29.067 30.769v-3.282c0-4.271-3.462-7.733-7.733-7.733h-13.128c-4.271 0-7.733 3.462-7.733 7.733v3.282c0 0.646 0.523 1.169 1.169 1.169s1.169-0.523 1.169-1.169v-3.282c0-2.979 2.415-5.395 5.395-5.395h13.128c2.98 0 5.395 2.415 5.395 5.395v3.282c0 0.646 0.523 1.169 1.169 1.169s1.169-0.523 1.169-1.169z"></path>
<path opacity="0.7" fill="#000" d="M14.769 15.528c-4.271 0-7.733-3.462-7.733-7.733s3.462-7.733 7.733-7.733c4.271 0 7.733 3.462 7.733 7.733s-3.462 7.733-7.733 7.733zM14.769 13.19c2.98 0 5.395-2.415 5.395-5.395s-2.415-5.395-5.395-5.395c-2.979 0-5.395 2.415-5.395 5.395s2.415 5.395 5.395 5.395z"></path>
</svg>
