<!-- Generated by IcoMoon.io -->
<svg version="1.1" xmlns="http://www.w3.org/2000/svg" viewBox="0 0 33 32">
<title>ic-zalo</title>
<path fill="#4e595d" d="M10.014 31.752c0.019 0.018 0.037 0.037 0.053 0.058-0.016-0.021-0.034-0.040-0.053-0.058zM9.85 31.636c0.023 0.015 0.046 0.029 0.069 0.043-0.023-0.015-0.046-0.029-0.069-0.043zM33.352 22.957c0.065 0.104 0.030 0.214 0.030 0.317 0.003 1.422 0.003 2.843 0.002 4.265-0.002 2.461-1.94 4.425-4.408 4.438-2.624 0.015-5.249 0.004-7.874 0.004-3.511 0-7.023 0-10.534-0-0.145 0-0.291-0.009-0.437-0.013-0.007-0.048-0.022-0.089-0.042-0.124 0.020 0.035 0.036 0.075 0.042 0.124-1.992 0.002-3.986 0.067-5.976-0.011-2.355-0.091-4.155-2.069-4.155-4.428 0.002-7.606 0.017-15.212 0.002-22.818-0.006-2.606 2.026-4.422 4.367-4.482 2.453-0.063 4.908-0.016 7.362-0.016 0.043 0 0.099-0.021 0.128 0.050-0.016 0.13-0.145 0.143-0.23 0.193-1.444 0.847-2.764 1.862-3.87 3.112-1.833 2.071-3.097 4.451-3.526 7.209-0.76 4.881 0.762 9.017 4.216 12.474 0.614 0.616 0.694 1.101 0.2 1.935-0.591 0.998-1.487 1.678-2.439 2.297-0.102 0.065-0.208 0.127-0.301 0.203-0.156 0.128-0.058 0.198 0.070 0.253 1.862 0.365 3.674 0.114 5.464-0.434 0.603-0.185 1.209-0.364 1.82-0.521 0.416-0.107 0.828-0.091 1.252 0.055 4.624 1.593 9.189 1.45 13.674-0.525 1.844-0.812 3.482-1.942 4.911-3.368 0.071-0.072 0.123-0.18 0.252-0.19zM11.263 15.656c1.103 0 2.132-0.007 3.162 0.003 0.579 0.005 0.891 0.251 0.944 0.706 0.067 0.577-0.269 0.959-0.894 0.967-1.178 0.013-2.357 0.005-3.536 0.005-0.34 0-0.681 0.012-1.020-0.008-0.423-0.024-0.837-0.108-1.039-0.544-0.203-0.437-0.062-0.83 0.218-1.185 1.126-1.432 2.254-2.863 3.38-4.295 0.067-0.085 0.132-0.172 0.197-0.257-0.069-0.124-0.179-0.068-0.264-0.069-0.789-0.005-1.579 0.001-2.369-0.006-0.181-0.002-0.366-0.016-0.54-0.061-0.367-0.096-0.589-0.389-0.592-0.739s0.213-0.648 0.579-0.751c0.172-0.048 0.359-0.065 0.539-0.066 1.3-0.006 2.6-0.005 3.9-0.001 0.229 0.001 0.461 0.006 0.684 0.084 0.493 0.17 0.71 0.624 0.51 1.105-0.175 0.419-0.453 0.775-0.73 1.128-0.953 1.213-1.91 2.423-2.865 3.635-0.074 0.094-0.145 0.191-0.266 0.349zM19.72 11.818c0.178-0.223 0.354-0.434 0.654-0.495 0.573-0.117 1.116 0.256 1.124 0.838 0.019 1.457 0.012 2.915 0.004 4.372-0.003 0.398-0.248 0.703-0.606 0.825-0.376 0.128-0.767 0.035-1.018-0.282-0.123-0.155-0.176-0.182-0.347-0.043-0.664 0.538-1.412 0.632-2.222 0.37-1.299-0.422-1.832-1.433-1.974-2.673-0.151-1.331 0.291-2.473 1.483-3.173 0.989-0.582 1.993-0.533 2.904 0.261zM17.143 14.483c0.008 0.251 0.090 0.588 0.307 0.881 0.472 0.636 1.441 0.634 1.911-0.002 0.409-0.551 0.407-1.466-0.003-2.017-0.216-0.291-0.505-0.443-0.865-0.464-0.799-0.047-1.359 0.571-1.351 1.601zM27.692 11.2c1.857-0.057 3.218 1.191 3.273 3.010 0.056 1.842-1.074 3.15-2.818 3.324-1.893 0.19-3.402-1.189-3.376-3.010-0.055-1.872 1.173-3.271 2.92-3.324zM28.806 15.385c0.424-0.551 0.426-1.488 0.007-2.044-0.218-0.291-0.508-0.44-0.867-0.46-0.787-0.042-1.337 0.561-1.34 1.467-0.002 0.374 0.086 0.722 0.31 1.024 0.461 0.619 1.419 0.625 1.89 0.014zM24.134 13.074c0 1.129 0.006 2.259-0.003 3.388-0.005 0.647-0.574 1.083-1.187 0.928-0.368-0.093-0.644-0.484-0.644-0.938-0.003-1.931-0.001-3.862-0.001-5.793 0-0.34-0.005-0.68 0.001-1.020 0.010-0.56 0.367-0.924 0.903-0.93 0.554-0.006 0.925 0.36 0.929 0.94 0.007 1.142 0.002 2.283 0.002 3.425z"></path>
</svg>
