<?xml version="1.0" encoding="utf-8"?>
<!-- Generated by IcoMoon.io -->
<svg version="1.1" xmlns="http://www.w3.org/2000/svg" xmlns:xlink="http://www.w3.org/1999/xlink" width="752" height="224" viewBox="0 0 752 224">
<svg id="ic-secure" width="29" height="32" viewBox="0 0 29 32" x="0" y="0">
<path fill="#4e595d" d="M28.277 4.479c-0.058-0.413-0.355-0.752-0.758-0.864l-12.904-3.577c-0.184-0.051-0.378-0.051-0.562 0l-12.904 3.577c-0.403 0.112-0.7 0.451-0.758 0.864-0.075 0.536-1.782 13.21 2.597 19.515 4.374 6.297 10.828 7.911 11.1 7.977 0.081 0.020 0.164 0.029 0.246 0.029s0.165-0.010 0.246-0.029c0.273-0.066 6.726-1.68 11.1-7.977 4.38-6.305 2.672-18.979 2.597-19.515zM19.125 11.667c0.848 0 1.542 0.686 1.542 1.524v7.619c0 0.838-0.694 1.524-1.542 1.524h-9.25c-0.848 0-1.542-0.686-1.542-1.524v-7.619c0-0.838 0.694-1.524 1.542-1.524h0.771v-1.524c0-2.103 1.727-3.81 3.854-3.81s3.854 1.707 3.854 3.81v1.524h0.771zM15.189 17.6c0.504-0.251 0.853-0.768 0.853-1.362 0-0.838-0.694-1.524-1.542-1.524s-1.542 0.686-1.542 1.524c0 0.594 0.348 1.111 0.853 1.362l-0.853 1.686h3.083l-0.853-1.686zM16.89 11.667v-1.524c0-1.303-1.071-2.362-2.39-2.362s-2.39 1.059-2.39 2.362v1.524h4.779z"></path>
</svg>
<svg id="ic-open-new-tab" width="32" height="32" viewBox="0 0 32 32" x="48" y="0">
<path fill="#4e595d" d="M28.252 2.333h-7.364c-0.552 0-1-0.448-1-1s0.448-1 1-1h9.778c0.552 0 1 0.448 1 1v9.778c0 0.552-0.448 1-1 1s-1-0.448-1-1v-7.364l-16.219 16.219c-0.391 0.391-1.024 0.391-1.414 0s-0.391-1.024 0-1.414l16.219-16.219zM24.778 17.63c0-0.552 0.448-1 1-1s1 0.448 1 1v9.778c0 2.352-1.907 4.259-4.259 4.259h-17.926c-2.352 0-4.259-1.907-4.259-4.259v-17.926c0-2.352 1.907-4.259 4.259-4.259h9.778c0.552 0 1 0.448 1 1s-0.448 1-1 1h-9.778c-1.248 0-2.259 1.011-2.259 2.259v17.926c0 1.248 1.012 2.259 2.259 2.259h17.926c1.248 0 2.259-1.012 2.259-2.259v-9.778z"></path>
</svg>
<svg id="ic-zalo" width="33" height="32" viewBox="0 0 33 32" x="96" y="0">
<path fill="#4e595d" d="M10.014 31.752c0.019 0.018 0.037 0.037 0.053 0.058-0.016-0.021-0.034-0.040-0.053-0.058zM9.85 31.636c0.023 0.015 0.046 0.029 0.069 0.043-0.023-0.015-0.046-0.029-0.069-0.043zM33.352 22.957c0.065 0.104 0.030 0.214 0.030 0.317 0.003 1.422 0.003 2.843 0.002 4.265-0.002 2.461-1.94 4.425-4.408 4.438-2.624 0.015-5.249 0.004-7.874 0.004-3.511 0-7.023 0-10.534-0-0.145 0-0.291-0.009-0.437-0.013-0.007-0.048-0.022-0.089-0.042-0.124 0.020 0.035 0.036 0.075 0.042 0.124-1.992 0.002-3.986 0.067-5.976-0.011-2.355-0.091-4.155-2.069-4.155-4.428 0.002-7.606 0.017-15.212 0.002-22.818-0.006-2.606 2.026-4.422 4.367-4.482 2.453-0.063 4.908-0.016 7.362-0.016 0.043 0 0.099-0.021 0.128 0.050-0.016 0.13-0.145 0.143-0.23 0.193-1.444 0.847-2.764 1.862-3.87 3.112-1.833 2.071-3.097 4.451-3.526 7.209-0.76 4.881 0.762 9.017 4.216 12.474 0.614 0.616 0.694 1.101 0.2 1.935-0.591 0.998-1.487 1.678-2.439 2.297-0.102 0.065-0.208 0.127-0.301 0.203-0.156 0.128-0.058 0.198 0.070 0.253 1.862 0.365 3.674 0.114 5.464-0.434 0.603-0.185 1.209-0.364 1.82-0.521 0.416-0.107 0.828-0.091 1.252 0.055 4.624 1.593 9.189 1.45 13.674-0.525 1.844-0.812 3.482-1.942 4.911-3.368 0.071-0.072 0.123-0.18 0.252-0.19zM11.263 15.656c1.103 0 2.132-0.007 3.162 0.003 0.579 0.005 0.891 0.251 0.944 0.706 0.067 0.577-0.269 0.959-0.894 0.967-1.178 0.013-2.357 0.005-3.536 0.005-0.34 0-0.681 0.012-1.020-0.008-0.423-0.024-0.837-0.108-1.039-0.544-0.203-0.437-0.062-0.83 0.218-1.185 1.126-1.432 2.254-2.863 3.38-4.295 0.067-0.085 0.132-0.172 0.197-0.257-0.069-0.124-0.179-0.068-0.264-0.069-0.789-0.005-1.579 0.001-2.369-0.006-0.181-0.002-0.366-0.016-0.54-0.061-0.367-0.096-0.589-0.389-0.592-0.739s0.213-0.648 0.579-0.751c0.172-0.048 0.359-0.065 0.539-0.066 1.3-0.006 2.6-0.005 3.9-0.001 0.229 0.001 0.461 0.006 0.684 0.084 0.493 0.17 0.71 0.624 0.51 1.105-0.175 0.419-0.453 0.775-0.73 1.128-0.953 1.213-1.91 2.423-2.865 3.635-0.074 0.094-0.145 0.191-0.266 0.349zM19.72 11.818c0.178-0.223 0.354-0.434 0.654-0.495 0.573-0.117 1.116 0.256 1.124 0.838 0.019 1.457 0.012 2.915 0.004 4.372-0.003 0.398-0.248 0.703-0.606 0.825-0.376 0.128-0.767 0.035-1.018-0.282-0.123-0.155-0.176-0.182-0.347-0.043-0.664 0.538-1.412 0.632-2.222 0.37-1.299-0.422-1.832-1.433-1.974-2.673-0.151-1.331 0.291-2.473 1.483-3.173 0.989-0.582 1.993-0.533 2.904 0.261zM17.143 14.483c0.008 0.251 0.090 0.588 0.307 0.881 0.472 0.636 1.441 0.634 1.911-0.002 0.409-0.551 0.407-1.466-0.003-2.017-0.216-0.291-0.505-0.443-0.865-0.464-0.799-0.047-1.359 0.571-1.351 1.601zM27.692 11.2c1.857-0.057 3.218 1.191 3.273 3.010 0.056 1.842-1.074 3.15-2.818 3.324-1.893 0.19-3.402-1.189-3.376-3.010-0.055-1.872 1.173-3.271 2.92-3.324zM28.806 15.385c0.424-0.551 0.426-1.488 0.007-2.044-0.218-0.291-0.508-0.44-0.867-0.46-0.787-0.042-1.337 0.561-1.34 1.467-0.002 0.374 0.086 0.722 0.31 1.024 0.461 0.619 1.419 0.625 1.89 0.014zM24.134 13.074c0 1.129 0.006 2.259-0.003 3.388-0.005 0.647-0.574 1.083-1.187 0.928-0.368-0.093-0.644-0.484-0.644-0.938-0.003-1.931-0.001-3.862-0.001-5.793 0-0.34-0.005-0.68 0.001-1.020 0.010-0.56 0.367-0.924 0.903-0.93 0.554-0.006 0.925 0.36 0.929 0.94 0.007 1.142 0.002 2.283 0.002 3.425z"></path>
</svg>
<svg id="ic-double-up" width="32" height="32" viewBox="0 0 32 32" x="144" y="0">
<path fill="#5d5c5d" d="M27.919 17.414c0.781 0.781 2.047 0.781 2.828 0s0.781-2.047 0-2.828l-13.333-13.333c-0.781-0.781-2.047-0.781-2.828 0l-13.333 13.333c-0.781 0.781-0.781 2.047 0 2.828s2.047 0.781 2.828 0l11.919-11.919 11.919 11.919z"></path>
<path fill="#5d5c5d" d="M16 18.828l11.919 11.919c0.781 0.781 2.047 0.781 2.828 0s0.781-2.047 0-2.828l-13.333-13.333c-0.781-0.781-2.047-0.781-2.828 0l-13.333 13.333c-0.781 0.781-0.781 2.047 0 2.828s2.047 0.781 2.828 0l11.919-11.919z"></path>
</svg>
<svg id="ic-double-down" width="32" height="32" viewBox="0 0 32 32" x="192" y="0">
<path fill="#5d5c5d" d="M27.919 14.586c0.781-0.781 2.047-0.781 2.828 0s0.781 2.047 0 2.828l-13.333 13.333c-0.781 0.781-2.047 0.781-2.828 0l-13.333-13.333c-0.781-0.781-0.781-2.047 0-2.828s2.047-0.781 2.828 0l11.919 11.919 11.919-11.919z"></path>
<path fill="#5d5c5d" d="M16 13.172l11.919-11.919c0.781-0.781 2.047-0.781 2.828 0s0.781 2.047 0 2.828l-13.333 13.333c-0.781 0.781-2.047 0.781-2.828 0l-13.333-13.333c-0.781-0.781-0.781-2.047 0-2.828s2.047-0.781 2.828 0l11.919 11.919z"></path>
</svg>
<svg id="ic-ship-filled" width="55" height="32" viewBox="0 0 55 32" x="240" y="0">
<path fill="#4e595d" d="M38.243 27.595h-23.129v-1.768h23.129v1.768zM39.237 5.275h7.202l8.047 9.386v12.934h-7.558v-1.768h5.79v-10.512l-7.092-8.273h-8.157v-5.083h-34.255v23.868h3.033v1.768h-4.801v-27.404h37.791v5.083z"></path>
<path fill="#4e595d" d="M39.981 8.921h3.16l5.458 6.409h-8.618z"></path>
<path fill="#4e595d" d="M42.552 30.026c-1.831 0-3.315-1.484-3.315-3.315s1.484-3.315 3.315-3.315c1.831 0 3.315 1.484 3.315 3.315s-1.484 3.315-3.315 3.315zM42.552 31.794c2.807 0 5.083-2.276 5.083-5.083s-2.276-5.083-5.083-5.083c-2.807 0-5.083 2.276-5.083 5.083s2.276 5.083 5.083 5.083z"></path>
<path fill="#4e595d" d="M10.729 30.026c-1.831 0-3.315-1.484-3.315-3.315s1.484-3.315 3.315-3.315c1.831 0 3.315 1.484 3.315 3.315s-1.484 3.315-3.315 3.315zM10.729 31.794c2.807 0 5.083-2.276 5.083-5.083s-2.276-5.083-5.083-5.083c-2.807 0-5.083 2.276-5.083 5.083s2.276 5.083 5.083 5.083z"></path>
</svg>
<svg id="ic-credit-card-filled" width="48" height="32" viewBox="0 0 48 32" x="336" y="0">
<path fill="#4e595d" d="M4 1.4c-1.436 0-2.6 1.164-2.6 2.6v22.545c0 1.436 1.164 2.6 2.6 2.6h40c1.436 0 2.6-1.164 2.6-2.6v-22.545c0-1.436-1.164-2.6-2.6-2.6h-40zM4 0h40c2.209 0 4 1.791 4 4v22.545c0 2.209-1.791 4-4 4h-40c-2.209 0-4-1.791-4-4v-22.545c0-2.209 1.791-4 4-4z"></path>
<path fill="#4e595d" d="M35.455 18.412c-0.747-0.599-1.695-0.957-2.727-0.957-2.41 0-4.364 1.954-4.364 4.364s1.954 4.364 4.364 4.364c1.032 0 1.98-0.358 2.727-0.957 0.747 0.599 1.695 0.957 2.727 0.957 2.41 0 4.364-1.954 4.364-4.364s-1.954-4.364-4.364-4.364c-1.032 0-1.98 0.358-2.727 0.957zM7.636 18.545h12c0.602 0 1.091 0.488 1.091 1.091v0c0 0.602-0.488 1.091-1.091 1.091h-12c-0.603 0-1.091-0.488-1.091-1.091s0.488-1.091 1.091-1.091v0zM7.636 6.545h33.818c0.602 0 1.091 0.488 1.091 1.091v0c0 0.603-0.488 1.091-1.091 1.091h-33.818c-0.603 0-1.091-0.488-1.091-1.091s0.488-1.091 1.091-1.091v0zM7.636 22.909h12c0.602 0 1.091 0.488 1.091 1.091s-0.488 1.091-1.091 1.091h-12c-0.603 0-1.091-0.488-1.091-1.091s0.488-1.091 1.091-1.091v0z"></path>
</svg>
<svg id="ic-exclusive" width="41" height="32" viewBox="0 0 41 32" x="432" y="0">
<path fill="#4e595d" d="M3.953 19.036c0 0 0.39-1.581-0.921-2.951-1.317-1.373-2.97-1.378-2.97-1.378s-0.411 1.856 0.87 3.194c1.28 1.334 3.021 1.135 3.021 1.135z"></path>
<path fill="#4e595d" d="M6.857 18.749c0 0 1.537-0.834 1.819-2.667 0.283-1.828-1.122-3.114-1.122-3.114s-1.346 0.957-1.637 2.835c-0.288 1.879 0.94 2.946 0.94 2.946z"></path>
<path fill="#4e595d" d="M9.169 23.361c0 0 1.416-1.031 1.457-2.883 0.037-1.849-1.522-2.94-1.522-2.94s-1.211 1.122-1.252 3.023c-0.041 1.9 1.317 2.799 1.317 2.799z"></path>
<path fill="#4e595d" d="M13.809 23.018c-0.135-1.844-1.79-2.784-1.79-2.784s-1.1 1.231-0.963 3.127c0.137 1.896 1.573 2.663 1.573 2.663s1.313-1.161 1.179-3.006z"></path>
<path fill="#4e595d" d="M16.977 28.323c0 0 0.926-1.485 0.267-3.217-0.66-1.73-2.517-2.154-2.517-2.154s-0.699 1.499-0.024 3.275c0.678 1.774 2.274 2.096 2.274 2.096z"></path>
<path fill="#4e595d" d="M4.594 14.986c0 0 1.204-1.096 0.871-2.966-0.333-1.869-1.703-2.795-1.703-2.795s-1.373 1.319-1.049 3.143c0.324 1.82 1.88 2.618 1.88 2.618z"></path>
<path fill="#4e595d" d="M5.539 22.623c0 0-0.092-1.627-1.75-2.55-1.662-0.92-3.244-0.443-3.244-0.443s0.155 1.896 1.773 2.795c1.621 0.899 3.222 0.197 3.222 0.197z"></path>
<path fill="#4e595d" d="M8.338 25.78c0 0-0.451-1.565-2.273-2.096-1.825-0.531-3.261 0.287-3.261 0.287s0.575 1.814 2.351 2.333c1.779 0.52 3.183-0.524 3.183-0.524z"></path>
<path fill="#4e595d" d="M11.469 28.029c0 0-0.903-1.354-2.8-1.308-1.9 0.046-3.022 1.259-3.022 1.259s1.097 1.558 2.946 1.512c1.851-0.042 2.876-1.464 2.876-1.464z"></path>
<path fill="#4e595d" d="M12.805 28.946c-1.88 0.276-2.848 1.613-2.848 1.613s1.273 1.416 3.106 1.151c1.834-0.267 2.678-1.798 2.678-1.798s-1.057-1.237-2.936-0.966z"></path>
<path fill="#4e595d" d="M5.214 15.916l-0.906-0.036c-0.003 0.1-0.228 9.918 14.587 14.344l0.259-0.868c-14.107-4.215-13.956-13.067-13.94-13.44z"></path>
<path fill="#4e595d" d="M36.127 19.062c0 0 1.74 0.199 3.021-1.137 1.282-1.337 0.87-3.194 0.87-3.194s-1.653 0.007-2.971 1.379c-1.313 1.373-0.92 2.952-0.92 2.952z"></path>
<path fill="#4e595d" d="M31.403 16.108c0.282 1.831 1.819 2.667 1.819 2.667s1.227-1.066 0.941-2.944c-0.291-1.879-1.637-2.835-1.637-2.835s-1.405 1.284-1.123 3.112z"></path>
<path fill="#4e595d" d="M30.977 17.563c0 0-1.56 1.091-1.524 2.94 0.041 1.849 1.457 2.883 1.457 2.883s1.358-0.9 1.318-2.799c-0.042-1.898-1.252-3.023-1.252-3.023z"></path>
<path fill="#4e595d" d="M26.27 23.044c-0.132 1.844 1.179 3.002 1.179 3.002s1.434-0.764 1.573-2.662c0.136-1.896-0.962-3.128-0.962-3.128s-1.653 0.941-1.79 2.788z"></path>
<path fill="#4e595d" d="M22.836 25.132c-0.66 1.73 0.267 3.215 0.267 3.215s1.595-0.322 2.273-2.095c0.676-1.777-0.025-3.276-0.025-3.276s-1.853 0.425-2.515 2.156z"></path>
<path fill="#4e595d" d="M35.486 15.013c0 0 1.556-0.798 1.881-2.619 0.324-1.824-1.050-3.143-1.050-3.143s-1.371 0.926-1.702 2.795c-0.334 1.871 0.87 2.967 0.87 2.967z"></path>
<path fill="#4e595d" d="M36.289 20.099c-1.658 0.921-1.75 2.548-1.75 2.548s1.602 0.703 3.222-0.196c1.618-0.899 1.773-2.796 1.773-2.796s-1.582-0.479-3.244 0.444z"></path>
<path fill="#4e595d" d="M34.013 23.711c-1.822 0.531-2.273 2.096-2.273 2.096s1.406 1.042 3.185 0.525c1.777-0.517 2.351-2.333 2.351-2.333s-1.439-0.82-3.264-0.288z"></path>
<path fill="#4e595d" d="M31.411 26.747c-1.898-0.046-2.8 1.309-2.8 1.309s1.024 1.42 2.876 1.464c1.849 0.045 2.946-1.512 2.946-1.512s-1.12-1.213-3.022-1.26z"></path>
<path fill="#4e595d" d="M27.274 28.971c-1.88-0.271-2.935 0.964-2.935 0.964s0.845 1.532 2.677 1.799c1.834 0.266 3.106-1.152 3.106-1.152s-0.967-1.335-2.848-1.611z"></path>
<path fill="#4e595d" d="M35.772 15.904l-0.908 0.036c0.016 0.375 0.167 9.223-13.94 13.439l0.259 0.866c14.816-4.423 14.591-14.242 14.588-14.341z"></path>
<path fill="#4e595d" d="M23.575 10.469l3.15-3.202-4.587-0.613-2.099-4.067-2.101 4.048-4.585 0.612 3.15 3.202-0.599 4.877 4.133-2.246 4.135 2.26-0.599-4.871zM25.65 17.514l-5.613-3.067-5.607 3.047 0.812-6.615-4.429-4.502 6.348-0.848 2.881-5.552 2.875 5.572 6.349 0.849-4.429 4.501 0.813 6.616z"></path>
</svg>
<svg id="ic-globe" width="35" height="32" viewBox="0 0 35 32" x="528" y="0">
<path fill="#4e595d" d="M34.283 13.294c-0.184-0.879-3.816-6.001-3.816-6.001s3.085-2.98 3.289-3.333c0.203-0.354 0.984-1.146-0.012-1.965-0.997-0.818-1.711-0.289-2.063 0.027-0.354 0.317-3.004 2.69-3.004 2.69s-5.378-3.916-6.267-3.985c-0.888-0.070-1.48 0.724-1.48 0.724l5.471 5.516-2.681 3.163-2.395-0.699-1.324 0.816c0 0 2.629 1.146 3.148 1.806s1.207 2.852 1.207 2.852l1.262-0.665-0.589-2.886 3.044-2.423 5.218 5.722c0.002 0 1.176-0.482 0.992-1.361z"></path>
<path fill="#4e595d" d="M21.998 12.925c-0.495-0.464-1.284-0.756-1.284-0.756-6.536 6.352-14.693 13.347-16.467 13.572-0.674 0.048-1.099-0.108-1.266-0.471-0.189-0.414-0.417-0.681 0.065-1.165l-1.379-3.073c-1.316 1.324-2.123 3.871-1.384 5.479 0.645 1.402 2.031 2.209 3.76 2.209 0.14 0 0.283-0.006 0.426-0.016 3.512-0.261 14.908-11.092 18.318-14.404-0.001-0.001-0.293-0.911-0.788-1.376z"></path>
<path fill="#4e595d" d="M3.927 17.455c0-7.471 6.056-13.527 13.527-13.527 0.755 0 1.502 0.062 2.235 0.184l0.678-0.91c-0.941-0.191-1.915-0.292-2.913-0.292-8.033 0-14.545 6.512-14.545 14.545 0 2.483 0.622 4.821 1.719 6.866l0.677-0.909c-0.902-1.836-1.379-3.861-1.379-5.957zM3.927 17.455c0-7.471 6.056-13.527 13.527-13.527 0.755 0 1.502 0.062 2.235 0.184l0.678-0.91c-0.941-0.191-1.915-0.292-2.913-0.292-8.033 0-14.545 6.512-14.545 14.545 0 2.483 0.622 4.821 1.719 6.866l0.677-0.909c-0.902-1.836-1.379-3.861-1.379-5.957zM31.718 14.591c0.185 0.926 0.282 1.883 0.282 2.863 0 8.033-6.512 14.545-14.545 14.545-3.469 0-6.654-1.214-9.154-3.241l0.93-0.563c2.34 1.795 5.205 2.786 8.224 2.786 7.471 0 13.527-6.056 13.527-13.527 0-0.777-0.065-1.546-0.195-2.3l0.931-0.563zM31.718 14.591c0.185 0.926 0.282 1.883 0.282 2.863 0 8.033-6.512 14.545-14.545 14.545-3.469 0-6.654-1.214-9.154-3.241l0.93-0.563c2.34 1.795 5.205 2.786 8.224 2.786 7.471 0 13.527-6.056 13.527-13.527 0-0.777-0.065-1.546-0.195-2.3l0.931-0.563z"></path>
</svg>
<svg id="ic-home-new" width="32" height="32" viewBox="0 0 32 32" x="576" y="0">
<path d="M28.385 30.727c-0.612 0-1.193-0.244-1.636-0.686l-24.789-24.791c-0.679-0.679-0.871-1.652-0.503-2.539 0.367-0.887 1.192-1.438 2.151-1.438h21.602c3.042 0 5.517 2.475 5.517 5.518v21.604c0 1.286-1.050 2.333-2.343 2.333zM3.608 2.5c-0.461 0-0.843 0.255-1.019 0.681-0.177 0.426-0.087 0.875 0.239 1.202l24.789 24.791c0.27 0.27 0.567 0.326 0.767 0.326 0.549 0 1.116-0.414 1.116-1.106v-21.604c0-2.366-1.924-4.291-4.29-4.291h-21.602z"></path>
<path d="M13.883 10.922c-0.096 0-0.192-0.024-0.28-0.070-0.23-0.123-0.353-0.383-0.301-0.639l0.801-4.006-2.171 2.171c-0.231 0.231-0.607 0.231-0.838 0s-0.231-0.607 0-0.838l3.555-3.555c0.185-0.185 0.469-0.226 0.698-0.103 0.23 0.123 0.353 0.383 0.301 0.639l-0.801 4.006 2.172-2.171c0.231-0.231 0.607-0.231 0.838 0s0.231 0.607 0 0.838l-3.555 3.555c-0.115 0.114-0.267 0.173-0.419 0.173z"></path>
<path d="M17.386 14.476c-0.154 0-0.307-0.059-0.425-0.175l-1.801-1.801c-0.234-0.234-0.234-0.615 0-0.849l3.601-3.602c0.234-0.234 0.615-0.234 0.849 0l1.801 1.801c0.234 0.234 0.234 0.615 0 0.849s-0.615 0.234-0.849 0l-1.376-1.376-2.753 2.752 1.376 1.376c0.234 0.234 0.234 0.615 0 0.849-0.116 0.118-0.27 0.176-0.424 0.176z"></path>
<path d="M19.429 12.445c-0.163 0-0.325-0.062-0.45-0.185l-1.27-1.27c-0.248-0.248-0.248-0.65 0-0.898s0.65-0.248 0.898 0l1.27 1.27c0.248 0.248 0.248 0.65 0 0.898-0.123 0.123-0.286 0.185-0.448 0.185z"></path>
<path d="M22.636 19.555c-0.145 0-0.29-0.052-0.404-0.151-0.189-0.164-0.259-0.424-0.18-0.661l0.843-2.53-2.529 0.844c-0.235 0.079-0.497 0.007-0.661-0.18-0.163-0.189-0.197-0.458-0.085-0.68l2.466-4.935c0.153-0.305 0.522-0.427 0.827-0.276 0.305 0.153 0.428 0.523 0.276 0.828l-1.8 3.602 2.287-0.762c0.222-0.076 0.466-0.017 0.631 0.149 0.165 0.165 0.223 0.41 0.149 0.632l-0.762 2.288 3.6-1.801c0.306-0.152 0.674-0.028 0.827 0.276s0.028 0.675-0.276 0.828l-4.932 2.467c-0.090 0.039-0.185 0.062-0.279 0.062z"></path>
</svg>
<svg id="ic-home-sale" width="32" height="32" viewBox="0 0 32 32" x="624" y="0">
<path d="M16 1.273c8.134 0 14.727 6.593 14.727 14.727s-6.593 14.727-14.727 14.727c-8.134 0-14.727-6.593-14.727-14.727s6.593-14.727 14.727-14.727zM16 2.87c-7.252 0-13.13 5.878-13.13 13.13s5.878 13.13 13.13 13.13c7.252 0 13.13-5.878 13.13-13.13s-5.878-13.13-13.13-13.13z"></path>
<path d="M12.641 17.117h3.023l-3.023 7.926 6.718-10.187h-2.963l2.963-7.899z"></path>
</svg>
<svg id="ic-check-mark" width="42" height="32" viewBox="0 0 42 32" x="672" y="0">
<path fill="#a4a4a4" opacity="0.992244112" d="M14.286 24.597l22.756-22.756 2.844 2.844-25.6 25.6-14.286-14.286 2.844-2.844z"></path>
</svg>
<svg id="ic-user" width="30" height="32" viewBox="0 0 30 32" x="0" y="48">
<path opacity="0.7" fill="#000" d="M29.067 30.769v-3.282c0-4.271-3.462-7.733-7.733-7.733h-13.128c-4.271 0-7.733 3.462-7.733 7.733v3.282c0 0.646 0.523 1.169 1.169 1.169s1.169-0.523 1.169-1.169v-3.282c0-2.979 2.415-5.395 5.395-5.395h13.128c2.98 0 5.395 2.415 5.395 5.395v3.282c0 0.646 0.523 1.169 1.169 1.169s1.169-0.523 1.169-1.169z"></path>
<path opacity="0.7" fill="#000" d="M14.769 15.528c-4.271 0-7.733-3.462-7.733-7.733s3.462-7.733 7.733-7.733c4.271 0 7.733 3.462 7.733 7.733s-3.462 7.733-7.733 7.733zM14.769 13.19c2.98 0 5.395-2.415 5.395-5.395s-2.415-5.395-5.395-5.395c-2.979 0-5.395 2.415-5.395 5.395s2.415 5.395 5.395 5.395z"></path>
</svg>
<svg id="ic-return-none" width="32" height="32" viewBox="0 0 32 32" x="48" y="48">
<path fill="#5d5c5d" d="M26.414 3.936c2.857 2.507 4.73 5.955 5.273 9.71l-1.864 0.273c-0.478-3.308-2.129-6.346-4.647-8.555-2.542-2.231-5.803-3.459-9.181-3.459-5.198 0-9.95 2.911-12.358 7.491l1.741 0.546-4.142 3.841-1.236-5.529 1.812 0.569c2.677-5.377 8.167-8.813 14.183-8.813 3.833 0 7.533 1.394 10.418 3.926zM31.991 23.67l-1.812-0.569c-2.677 5.377-8.167 8.812-14.184 8.812-3.833 0-7.533-1.394-10.418-3.926-2.857-2.507-4.73-5.955-5.273-9.71l1.864-0.273c0.478 3.308 2.129 6.346 4.647 8.555 2.542 2.231 5.803 3.459 9.181 3.459 5.198 0 9.95-2.911 12.358-7.491l-1.741-0.546 4.142-3.84 1.236 5.529z"></path>
<path fill="#5d5c5d" d="M20.566 11.422c-0.296-0.297-0.771-0.297-1.067 0l-3.504 3.509-3.504-3.509c-0.296-0.297-0.771-0.297-1.067 0s-0.296 0.772 0 1.069l3.504 3.509-3.504 3.509c-0.296 0.297-0.296 0.772 0 1.069 0.148 0.148 0.339 0.222 0.537 0.222s0.389-0.074 0.537-0.222l3.504-3.509 3.504 3.509c0.148 0.148 0.339 0.222 0.537 0.222s0.389-0.074 0.537-0.222c0.296-0.297 0.296-0.772 0-1.069l-3.517-3.509 3.504-3.509c0.296-0.297 0.296-0.772 0-1.069z"></path>
</svg>
<svg id="ic-bag-empty" width="29" height="32" viewBox="0 0 29 32" x="96" y="48">
<path fill="#5d5c5d" d="M2.094 29.998l1.816-19.998h4.086v2.275c-0.595 0.347-0.995 0.986-0.995 1.724 0 1.104 0.892 2.002 1.996 2.002s2.002-0.899 2.002-2.002c0-0.737-0.405-1.376-1.001-1.724v-2.275h7.997v2.275c-0.595 0.347-0.995 0.986-0.995 1.724 0 1.104 0.892 2.002 1.996 2.002s2.002-0.899 2.002-2.002c0-0.737-0.405-1.376-1.001-1.724v-2.275h4.087l1.816 19.998h-23.807zM9.998 6.001c0-2.207 1.797-3.998 3.998-3.998 2.207 0 3.998 1.791 3.998 3.998v1.996h-7.997v-1.996zM25.993 8.911c-0.049-0.517-0.479-0.914-0.996-0.914h-5v-1.996c0-3.311-2.69-6.001-6.001-6.001-3.305 0-6.001 2.69-6.001 6.001v1.996h-5c-0.517 0-0.946 0.396-0.995 0.914l-1.997 21.996c-0.025 0.282 0.069 0.556 0.259 0.766 0.185 0.205 0.454 0.327 0.737 0.327h25.999c0.277 0 0.546-0.122 0.736-0.327 0.186-0.21 0.284-0.484 0.259-0.766l-2.001-21.996z"></path>
<path fill="#5d5c5d" d="M9.684 23.464c1.604-3.102 3.226-4.585 4.81-4.569 1.588 0.016 3.215 1.539 4.821 4.68 0.153 0.3 0.52 0.418 0.82 0.265s0.418-0.52 0.265-0.82c-1.791-3.503-3.735-5.322-5.894-5.344-2.163-0.022-4.112 1.76-5.905 5.228-0.155 0.299-0.038 0.667 0.261 0.821s0.667 0.038 0.821-0.261z"></path>
</svg>
<svg id="ic-close" width="32" height="32" viewBox="0 0 32 32" x="144" y="48">
<path fill="#595959" d="M17.741 16l12.184-12.184-1.741-1.741-12.184 12.184-12.184-12.184-1.741 1.741 12.184 12.184-12.184 12.184 1.741 1.741 12.184-12.184 12.184 12.184 1.741-1.741-12.184-12.184z"></path>
</svg>
<svg id="ic-arrow-chevron-slide" width="30" height="32" viewBox="0 0 30 32" x="192" y="48">
<path opacity="0.7" fill="#000" d="M25.428 5.205h-24.755v-3.094h27.849v27.849h-3.094z"></path>
</svg>
<svg id="ic-arrow-down" width="54" height="32" viewBox="0 0 54 32" x="240" y="48">
<path opacity="0.7" fill="#000" d="M27.022 24.533l22.756-22.756 2.844 2.844-25.6 25.6-25.6-25.6 2.844-2.844z"></path>
</svg>
<svg id="ic-arrow-up" width="54" height="32" viewBox="0 0 54 32" x="336" y="48">
<path opacity="0.7" fill="#000" d="M27.022 7.467l-22.756 22.756-2.844-2.844 25.6-25.6 25.6 25.6-2.844 2.844z"></path>
</svg>
<svg id="ic-lock" width="22" height="32" viewBox="0 0 22 32" x="432" y="48">
<path opacity="0.7" fill="#000" d="M19.2 14.4v-6.4c0-4.411-3.589-8-8-8s-8 3.589-8 8v6.4c-1.765 0-3.2 1.434-3.2 3.2v11.2c0 1.765 1.435 3.2 3.2 3.2h16c1.765 0 3.2-1.435 3.2-3.2v-11.2c0-1.766-1.435-3.2-3.2-3.2zM11.2 25.6c-1.325 0-2.4-1.075-2.4-2.4s1.074-2.4 2.4-2.4c1.326 0 2.4 1.075 2.4 2.4s-1.075 2.4-2.4 2.4zM16 14.4h-9.6v-6.4c0-2.646 2.154-4.8 4.8-4.8s4.8 2.154 4.8 4.8v6.4z"></path>
</svg>
<svg id="ic-bag" width="29" height="32" viewBox="0 0 29 32" x="480" y="48">
<path fill="#5d5c5d" d="M2.094 29.998l1.816-19.998h4.086v2.275c-0.595 0.347-0.995 0.986-0.995 1.724 0 1.104 0.892 2.002 1.996 2.002s2.002-0.899 2.002-2.002c0-0.737-0.405-1.376-1.001-1.724v-2.275h7.997v2.275c-0.595 0.347-0.995 0.986-0.995 1.724 0 1.104 0.892 2.002 1.996 2.002s2.002-0.899 2.002-2.002c0-0.737-0.405-1.376-1.001-1.724v-2.275h4.087l1.816 19.998h-23.807zM9.998 6.001c0-2.207 1.797-3.998 3.998-3.998 2.207 0 3.998 1.791 3.998 3.998v1.996h-7.997v-1.996zM25.993 8.911c-0.049-0.517-0.479-0.914-0.996-0.914h-5v-1.996c0-3.311-2.69-6.001-6.001-6.001-3.305 0-6.001 2.69-6.001 6.001v1.996h-5c-0.517 0-0.946 0.396-0.995 0.914l-1.997 21.996c-0.025 0.282 0.069 0.556 0.259 0.766 0.185 0.205 0.454 0.327 0.737 0.327h25.999c0.277 0 0.546-0.122 0.736-0.327 0.186-0.21 0.284-0.484 0.259-0.766l-2.001-21.996z"></path>
</svg>
<svg id="ic-menu" width="36" height="32" viewBox="0 0 36 32" x="528" y="48">
<path opacity="0.7" fill="#000" d="M33.778 17.778h-32c-0.981 0-1.778-0.796-1.778-1.778s0.796-1.778 1.778-1.778h32c0.981 0 1.778 0.796 1.778 1.778s-0.796 1.778-1.778 1.778v0zM33.778 3.556h-32c-0.981 0-1.778-0.796-1.778-1.778s0.796-1.778 1.778-1.778h32c0.981 0 1.778 0.796 1.778 1.778s-0.796 1.778-1.778 1.778v0zM1.778 28.444h32c0.981 0 1.778 0.796 1.778 1.778s-0.796 1.778-1.778 1.778h-32c-0.981 0-1.778-0.796-1.778-1.778s0.796-1.778 1.778-1.778v0z"></path>
</svg>
<svg id="ic-time" width="32" height="32" viewBox="0 0 32 32" x="576" y="48">
<path fill="#575757" d="M18.997 29.054c0.681-0.171 1.371 0.247 1.54 0.935s-0.245 1.384-0.926 1.555c-0.311 0.078-0.627 0.148-0.941 0.206-0.35 0.066-0.693-0.021-0.963-0.212-0.262-0.187-0.455-0.472-0.517-0.815-0.128-0.697 0.328-1.367 1.018-1.496 0.264-0.049 0.529-0.107 0.79-0.173zM28.393 11.848c-0.084-0.257-0.178-0.516-0.277-0.768-0.261-0.658 0.056-1.405 0.708-1.668s1.391 0.057 1.652 0.716c0.118 0.299 0.23 0.607 0.33 0.914 0.221 0.673-0.141 1.399-0.807 1.622-0.397 0.133-0.814 0.057-1.132-0.17-0.215-0.153-0.385-0.374-0.474-0.645zM23.126 27.221c0.586-0.391 1.373-0.229 1.76 0.363s0.226 1.388-0.36 1.779c-0.267 0.178-0.542 0.35-0.819 0.511-0.443 0.258-0.976 0.216-1.368-0.062-0.146-0.105-0.273-0.241-0.368-0.408-0.351-0.614-0.143-1.399 0.465-1.754 0.233-0.136 0.464-0.28 0.689-0.43zM31.596 15.433c0.013 0.323 0.015 0.65 0.008 0.974-0.016 0.709-0.596 1.271-1.298 1.255-0.262-0.006-0.504-0.092-0.703-0.234-0.334-0.238-0.549-0.634-0.539-1.079 0.006-0.27 0.003-0.545-0.007-0.816-0.027-0.708 0.519-1.305 1.22-1.333s1.292 0.524 1.32 1.232zM28.186 23.844c0.561 0.426 0.675 1.23 0.254 1.797-0.193 0.259-0.395 0.516-0.603 0.762-0.429 0.509-1.167 0.596-1.698 0.218-0.032-0.022-0.063-0.046-0.093-0.072-0.534-0.46-0.598-1.27-0.144-1.81 0.174-0.206 0.344-0.421 0.505-0.638 0.421-0.567 1.217-0.683 1.779-0.257zM30.054 19.204c0.669 0.212 1.042 0.932 0.832 1.609-0.096 0.307-0.202 0.616-0.316 0.919-0.25 0.663-0.984 0.995-1.639 0.742-0.102-0.039-0.195-0.090-0.28-0.15-0.463-0.33-0.666-0.946-0.455-1.506 0.096-0.254 0.185-0.514 0.265-0.773 0.21-0.676 0.923-1.053 1.592-0.841z"></path>
<path fill="#575757" d="M13.453 29.238c-1.136-0.206-2.226-0.557-3.259-1.046-0.012-0.007-0.023-0.014-0.036-0.020-0.244-0.116-0.487-0.24-0.722-0.369-0.001-0.001-0.002-0.002-0.004-0.002-0.432-0.24-0.854-0.506-1.264-0.798-5.977-4.254-7.414-12.627-3.204-18.665 0.916-1.313 2.024-2.408 3.259-3.276 0.015-0.011 0.031-0.021 0.046-0.032 4.353-3.030 10.264-3.234 14.886-0.121l-0.993 1.449c-0.276 0.403-0.106 0.697 0.377 0.653l4.312-0.39c0.484-0.044 0.773-0.467 0.643-0.938l-1.158-4.215c-0.129-0.473-0.462-0.529-0.738-0.126l-0.995 1.453c-3.392-2.3-7.46-3.178-11.499-2.47-0.407 0.071-0.808 0.158-1.203 0.259-0.003 0.001-0.006 0.001-0.008 0.002-0.015 0.004-0.031 0.009-0.046 0.013-3.482 0.904-6.52 2.955-8.688 5.883-0.018 0.022-0.037 0.043-0.054 0.067-0.072 0.098-0.144 0.198-0.214 0.299-0.115 0.165-0.228 0.333-0.335 0.502-0.014 0.021-0.024 0.041-0.036 0.062-1.789 2.801-2.652 6.038-2.504 9.334 0 0.011-0 0.022 0 0.033 0.014 0.322 0.040 0.649 0.074 0.97 0.002 0.021 0.006 0.040 0.010 0.061 0.035 0.323 0.080 0.647 0.136 0.971 0.567 3.304 2.11 6.277 4.422 8.591 0.005 0.005 0.011 0.011 0.016 0.017 0.002 0.002 0.004 0.003 0.006 0.005 0.621 0.619 1.297 1.191 2.024 1.709 1.904 1.355 4.024 2.251 6.3 2.664 0.691 0.125 1.351-0.339 1.475-1.037s-0.335-1.365-1.026-1.49z"></path>
<path fill="#575757" d="M15.024 5.681c-0.568 0-1.028 0.466-1.028 1.039v10.347l9.368 4.892c0.151 0.079 0.312 0.116 0.471 0.116 0.372 0 0.732-0.205 0.914-0.562 0.26-0.509 0.063-1.136-0.441-1.399l-8.256-4.312v-9.083c0-0.573-0.459-1.039-1.027-1.039z"></path>
</svg>
<svg id="ic-thunder" width="32" height="32" viewBox="0 0 32 32" x="624" y="48">
<path d="M16 0c8.837 0 16 7.163 16 16s-7.163 16-16 16c-8.837 0-16-7.163-16-16s7.163-16 16-16zM12.090 17.269h3.52l-3.52 9.14 7.821-11.747h-3.45l3.45-9.109-7.821 11.716z"></path>
</svg>
<svg id="ic-vietnam" width="32" height="32" viewBox="0 0 32 32" x="672" y="48">
<path d="M16 32c-8.837 0-16-7.163-16-16s7.163-16 16-16c8.837 0 16 7.163 16 16s-7.163 16-16 16zM16 8.348l-1.727 5.314h-5.588l4.521 3.284-1.727 5.314 4.521-3.284 4.521 3.284-1.727-5.314 4.521-3.284h-5.588l-1.727-5.314z"></path>
</svg>
<svg id="ic-teacup" width="26" height="32" viewBox="0 0 26 32" x="720" y="48">
<path d="M4.594 7.184c-0.212 0-0.418-0.102-0.545-0.291-0.2-0.3-0.119-0.705 0.182-0.905 0.533-0.355 0.505-0.622-0.183-1.782-0.529-0.888-1.415-2.377 0.183-3.443 0.299-0.201 0.705-0.119 0.905 0.182 0.2 0.299 0.119 0.705-0.182 0.905-0.457 0.306-0.492 0.499 0.215 1.689 0.541 0.909 1.445 2.429-0.214 3.536-0.112 0.074-0.238 0.11-0.362 0.11z"></path>
<path d="M9.787 7.184c-0.212 0-0.418-0.102-0.545-0.291-0.2-0.3-0.119-0.705 0.182-0.905 0.533-0.355 0.505-0.622-0.184-1.782-0.528-0.888-1.413-2.377 0.184-3.443 0.3-0.201 0.705-0.119 0.905 0.182 0.2 0.299 0.119 0.705-0.182 0.905-0.457 0.306-0.492 0.499 0.216 1.689 0.541 0.909 1.445 2.429-0.214 3.536-0.111 0.074-0.238 0.11-0.362 0.11z"></path>
<path d="M15.011 7.184c-0.212 0-0.418-0.102-0.545-0.291-0.2-0.3-0.119-0.705 0.182-0.905 0.533-0.355 0.505-0.622-0.184-1.782-0.528-0.888-1.413-2.377 0.184-3.443 0.3-0.201 0.705-0.119 0.905 0.182 0.2 0.299 0.119 0.705-0.182 0.905-0.458 0.306-0.494 0.498 0.214 1.689 0.541 0.909 1.445 2.429-0.214 3.536-0.11 0.074-0.236 0.11-0.361 0.11z"></path>
<path d="M21.551 22.857h-2.612c-0.36 0-0.653-0.293-0.653-0.653s0.293-0.653 0.653-0.653h2.612c1.080 0 1.959-0.879 1.959-1.959v-5.224c0-1.080-0.879-1.959-1.959-1.959h-2.612c-0.36 0-0.653-0.293-0.653-0.653s0.293-0.653 0.653-0.653h2.612c1.8 0 3.265 1.465 3.265 3.265v5.225c0 1.801-1.465 3.265-3.265 3.265z"></path>
<path d="M18.939 8.49h-12.408v6.531h0.923l1.689 1.689v4.842h-6.531v-4.842l1.689-1.689h0.923v-6.531h-4.571c-0.36 0-0.653 0.293-0.653 0.653v18.286c0 2.521 2.051 4.571 4.571 4.571h10.449c2.521 0 4.571-2.051 4.571-4.571v-18.286c0-0.361-0.293-0.653-0.653-0.653z"></path>
</svg>
<svg id="ic-arrow-left-2" width="32" height="32" viewBox="0 0 32 32" x="0" y="96">
<path fill="#272727" d="M23.139 7.063l0.031 0.236-0.353 0.073-0.047 0.502h0.423l0.563-0.054 0.291-0.345-0.309-0.12-0.169-0.195-0.254-0.411-0.121-0.582-0.477 0.097-0.134 0.205v0.231l0.23 0.157z"></path>
<path fill="#272727" d="M22.732 7.256l0.025-0.315-0.28-0.121-0.392 0.091-0.291 0.466v0.302h0.339z"></path>
<path fill="#272727" d="M31.751 15.713c-0.005-0.464-0.028-0.925-0.072-1.379-0.147-1.513-0.509-2.964-1.051-4.323-0.041-0.101-0.078-0.204-0.121-0.304-0.722-1.706-1.736-3.26-2.978-4.601-0.082-0.088-0.165-0.174-0.247-0.259-0.234-0.244-0.475-0.481-0.725-0.709-2.823-2.57-6.571-4.138-10.68-4.138-4.144 0-7.919 1.597-10.749 4.206-0.66 0.608-1.266 1.272-1.816 1.982-2.074 2.683-3.312 6.043-3.312 9.689 0 8.756 7.123 15.878 15.878 15.878 6.158 0 11.505-3.527 14.137-8.665 0.563-1.098 1.001-2.269 1.296-3.497 0.075-0.311 0.14-0.624 0.196-0.941 0.16-0.902 0.247-1.829 0.247-2.776 0.001-0.055-0.003-0.109-0.003-0.164zM28.763 9.367l0.092-0.103c0.121 0.234 0.234 0.473 0.342 0.714l-0.15-0.006-0.283 0.039v-0.645zM26.469 6.597l0.003-0.709c0.249 0.264 0.49 0.537 0.72 0.819l-0.286 0.426-1-0.009-0.063-0.208 0.626-0.318zM7.316 4.835v-0.027h0.318l0.027-0.109h0.52v0.227l-0.15 0.2h-0.717l0.001-0.291zM7.824 5.543c0 0 0.318-0.054 0.345-0.054s0 0.317 0 0.317l-0.717 0.045-0.136-0.163 0.508-0.145zM29.774 11.846h-1.162l-0.708-0.527-0.745 0.072v0.455h-0.236l-0.255-0.182-1.29-0.327v-0.836l-1.635 0.127-0.507 0.272h-0.649l-0.318-0.032-0.788 0.438v0.823l-1.611 1.162 0.134 0.496h0.327l-0.086 0.473-0.23 0.084-0.012 1.236 1.392 1.586h0.606l0.037-0.097h1.089l0.314-0.291h0.618l0.339 0.34 0.921 0.095-0.122 1.224 1.022 1.804-0.538 1.029 0.037 0.485 0.424 0.423v1.165l0.556 0.748v0.968h0.481c-2.675 3.284-6.746 5.388-11.301 5.388-8.034 0.001-14.57-6.537-14.57-14.571 0-2.023 0.415-3.95 1.163-5.703v-0.455l0.521-0.633c0.181-0.342 0.375-0.675 0.582-0.999l0.023 0.264-0.605 0.735c-0.187 0.354-0.362 0.716-0.521 1.087v0.829l0.605 0.291v1.153l0.581 0.991 0.472 0.072 0.061-0.34-0.557-0.859-0.109-0.835h0.327l0.138 0.859 0.805 1.175-0.208 0.379 0.512 0.783 1.271 0.315v-0.206l0.509 0.072-0.048 0.363 0.4 0.073 0.617 0.168 0.872 0.993 1.113 0.084 0.109 0.908-0.762 0.533-0.036 0.811-0.109 0.496 1.102 1.38 0.084 0.473c0 0 0.4 0.108 0.449 0.108s0.896 0.642 0.896 0.642v2.494l0.302 0.085-0.206 1.151 0.509 0.679-0.094 1.14 0.672 1.181 0.863 0.754 0.867 0.016 0.085-0.279-0.637-0.537 0.037-0.266 0.114-0.327 0.024-0.333-0.431-0.013-0.217-0.273 0.358-0.344 0.048-0.26-0.4-0.114 0.024-0.242 0.569-0.086 0.866-0.416 0.291-0.533 0.908-1.162-0.206-0.909 0.279-0.484 0.835 0.025 0.562-0.445 0.182-1.754 0.624-0.792 0.109-0.509-0.569-0.182-0.375-0.616-1.283-0.013-1.017-0.388-0.048-0.726-0.34-0.594-0.92-0.014-0.532-0.835-0.472-0.231-0.024 0.255-0.859 0.051-0.315-0.438-0.897-0.182-0.739 0.854-1.162-0.197-0.084-1.31-0.848-0.145 0.34-0.643-0.097-0.369-1.115 0.745-0.701-0.086-0.25-0.548 0.153-0.565 0.387-0.713 0.89-0.451 1.719-0.001-0.005 0.524 0.618 0.287-0.049-0.896 0.445-0.448 0.899-0.59 0.061-0.415 0.896-0.933 0.953-0.528-0.084-0.069 0.645-0.607 0.236 0.063 0.108 0.136 0.245-0.272 0.060-0.027-0.268-0.038-0.272-0.091v-0.261l0.144-0.118h0.318l0.146 0.064 0.126 0.255 0.154-0.024v-0.022l0.044 0.015 0.447-0.069 0.063-0.218 0.255 0.064v0.236l-0.236 0.163h0.001l0.035 0.259 0.809 0.249c0 0 0.001 0.003 0.002 0.010l0.186-0.016 0.012-0.351-0.641-0.292-0.037-0.168 0.532-0.182 0.023-0.509-0.556-0.339-0.037-0.859-0.763 0.375h-0.278l0.073-0.654-1.038-0.245-0.43 0.325v0.99l-0.773 0.245-0.31 0.645-0.336 0.054v-0.825l-0.726-0.101-0.363-0.236-0.146-0.535 1.299-0.76 0.635-0.193 0.064 0.427 0.354-0.018 0.027-0.215 0.37-0.053 0.007-0.075-0.159-0.066-0.037-0.227 0.455-0.039 0.275-0.286 0.015-0.021 0.003 0.001 0.084-0.086 0.957-0.121 0.423 0.359-1.11 0.591 1.412 0.333 0.183-0.472h0.617l0.218-0.411-0.436-0.109v-0.521l-1.368-0.606-0.944 0.109-0.533 0.279 0.037 0.678-0.557-0.085-0.086-0.375 0.534-0.485-0.969-0.048-0.278 0.084-0.121 0.327 0.363 0.061-0.072 0.363-0.617 0.037-0.097 0.242-0.895 0.025c0 0-0.025-0.508-0.061-0.508s0.702-0.012 0.702-0.012l0.534-0.521-0.291-0.146-0.387 0.376-0.643-0.037-0.387-0.533h-0.823l-0.859 0.642h0.788l0.072 0.231-0.204 0.19 0.872 0.024 0.133 0.315-0.982-0.037-0.048-0.242-0.617-0.133-0.327-0.182-0.735 0.006c2.405-1.752 5.363-2.789 8.56-2.789 3.685 0 7.051 1.377 9.62 3.64l-0.173 0.31-0.672 0.263-0.283 0.308 0.065 0.359 0.347 0.048 0.209 0.522 0.598-0.241 0.099 0.699h-0.18l-0.491-0.072-0.545 0.091-0.527 0.745-0.754 0.118-0.109 0.645 0.318 0.075-0.092 0.415-0.748-0.15-0.686 0.15-0.146 0.382 0.119 0.802 0.403 0.189 0.676-0.004 0.456-0.041 0.139-0.363 0.713-0.927 0.47 0.096 0.462-0.418 0.086 0.327 1.138 0.767-0.139 0.187-0.513-0.027 0.197 0.28 0.315 0.069 0.37-0.154-0.008-0.445 0.164-0.082-0.132-0.14-0.759-0.423-0.2-0.562h0.631l0.202 0.2 0.543 0.468 0.023 0.566 0.563 0.6 0.21-0.822 0.39-0.213 0.073 0.672 0.381 0.418 0.759-0.013c0.147 0.378 0.279 0.763 0.394 1.155l-0.079 0.073zM8.66 7.214l0.381-0.182 0.345 0.082-0.119 0.463-0.372 0.118-0.235-0.482zM10.684 8.304v0.3h-0.871l-0.327-0.091 0.082-0.209 0.419-0.173h0.572v0.173h0.125zM11.085 8.722v0.291l-0.218 0.14-0.272 0.050v-0.481h0.49zM10.839 8.603v-0.345l0.3 0.273-0.3 0.072zM10.976 9.302v0.283l-0.208 0.209h-0.463l0.072-0.317 0.219-0.019 0.045-0.109 0.335-0.046zM9.823 8.722h0.481l-0.617 0.863-0.255-0.136 0.055-0.363 0.336-0.363zM11.794 9.203v0.282h-0.463l-0.127-0.183v-0.263h0.037l0.553 0.163zM11.366 8.815l0.132-0.138 0.223 0.138-0.178 0.147-0.176-0.147zM30.011 12.581l0.046-0.054c0.019 0.082 0.039 0.165 0.057 0.248l-0.103-0.195z"></path>
<path fill="#000" d="M2.47 9.72v0.455c0.194-0.371 0.409-0.733 0.638-1.087l-0.638 0.633z"></path>
</svg>
<svg id="ic-arrow-left" width="32" height="32" viewBox="0 0 32 32" x="48" y="96">
<path opacity="0.7" fill="#000" d="M10.556 16l14.222-14.222-1.778-1.778-16 16 16 16 1.778-1.778z"></path>
</svg>
<svg id="ic-arrow-right" width="32" height="32" viewBox="0 0 32 32" x="96" y="96">
<path opacity="0.7" fill="#000" d="M21.222 16l-14.222-14.222 1.778-1.778 16 16-16 16-1.778-1.778z"></path>
</svg>
<svg id="ic-close-circle" width="32" height="32" viewBox="0 0 32 32" x="144" y="96">
<path d="M16 30.667c8.1 0 14.667-6.567 14.667-14.667s-6.566-14.667-14.667-14.667c-8.1 0-14.667 6.566-14.667 14.667s6.566 14.667 14.667 14.667zM16 32c-8.837 0-16-7.163-16-16s7.163-16 16-16c8.837 0 16 7.163 16 16s-7.163 16-16 16z"></path>
<path d="M16.952 16l5.714-5.714-0.952-0.952-5.714 5.714-5.714-5.714-0.952 0.952 5.714 5.714-5.714 5.714 0.952 0.952 5.714-5.714 5.714 5.714 0.952-0.952z"></path>
</svg>
<svg id="ic-credit" width="32" height="32" viewBox="0 0 32 32" x="192" y="96">
<path fill="#909090" d="M28.155 4.806h-24.332c-2.108 0-3.822 1.715-3.822 3.822v13.746c0 2.108 1.715 3.822 3.822 3.822h24.332c2.108 0 3.822-1.715 3.822-3.822v-13.746c0-2.108-1.715-3.822-3.822-3.822zM29.862 22.374c0 0.942-0.766 1.707-1.707 1.707h-24.332c-0.942 0-1.707-0.766-1.707-1.707v-9.212h27.747l0 9.212zM29.862 10.145l-27.747 0.002v-1.519c0-0.941 0.766-1.707 1.707-1.707h24.332c0.941 0 1.707 0.766 1.707 1.707v1.517z"></path>
<path fill="#909090" d="M4.74 22.12h5.79c0.207 0 0.376-0.168 0.376-0.375v-1.142c0-0.207-0.168-0.375-0.376-0.375h-5.79c-0.207 0-0.375 0.168-0.375 0.375v1.142c-0 0.207 0.168 0.375 0.375 0.375z"></path>
<path fill="#909090" d="M23.51 22.12h1.722c0.994 0 1.8-0.806 1.8-1.8v-1.722c0-0.994-0.806-1.8-1.8-1.8h-1.722c-0.994 0-1.8 0.806-1.8 1.8v1.722c0 0.994 0.806 1.8 1.8 1.8z"></path>
</svg>
<svg id="ic-crown" width="32" height="32" viewBox="0 0 32 32" x="240" y="96">
<path d="M29.353 10.104c-1.139 0-2.064 0.926-2.064 2.064 0 0.446 0.146 0.857 0.388 1.194l-3.901 2.476-1.025-2.222c-0.145-0.312-0.514-0.445-0.822-0.303l-2.583 1.188c-0.092 0.043-0.163 0.108-0.224 0.183l-2.665-4.012c0.767-0.301 1.313-1.044 1.313-1.917 0-1.138-0.925-2.063-2.063-2.063s-2.063 0.925-2.063 2.063c0 0.874 0.547 1.616 1.314 1.917l-2.665 4.012c-0.059-0.075-0.13-0.141-0.223-0.183l-2.582-1.188c-0.309-0.14-0.678-0.009-0.822 0.303l-1.048 2.265-3.881-2.519c0.243-0.338 0.39-0.749 0.39-1.196 0-1.138-0.925-2.064-2.063-2.064s-2.063 0.926-2.063 2.064c0 1.138 0.926 2.063 2.063 2.063 0.217 0 0.421-0.043 0.617-0.105l5.038 7.995c0.115 0.18 0.312 0.291 0.525 0.291h14.931c0.213 0 0.412-0.111 0.525-0.291l5.038-7.995c0.197 0.062 0.401 0.105 0.617 0.105 1.139 0 2.064-0.925 2.064-2.063s-0.928-2.063-2.065-2.063zM19.863 15.631l2.019-0.929 0.835 1.809-1.674 1.064-1.279-1.919c0.034-0.010 0.066-0.009 0.099-0.024zM15.708 7.934c0.454 0 0.823 0.37 0.823 0.824 0 0.455-0.368 0.823-0.823 0.823s-0.823-0.368-0.823-0.823c-0.001-0.453 0.369-0.824 0.823-0.824zM9.533 14.702l2.019 0.929c0.032 0.015 0.064 0.015 0.097 0.023l-1.322 1.988-1.658-1.076 0.864-1.863zM1.24 12.168c0-0.454 0.369-0.824 0.823-0.824s0.823 0.37 0.823 0.824c0 0.455-0.369 0.823-0.823 0.823s-0.823-0.368-0.823-0.823zM22.83 21.172h-14.246l-3.392-5.383 4.974 3.227c0.287 0.185 0.668 0.106 0.854-0.178l4.686-7.050 4.638 6.977c0.187 0.281 0.565 0.362 0.848 0.181l5.062-3.213-3.424 5.439zM29.353 12.992c-0.454 0-0.824-0.368-0.824-0.823 0-0.454 0.37-0.824 0.824-0.824s0.822 0.37 0.822 0.824c0 0.454-0.368 0.823-0.822 0.823zM23.845 24.357c0 0.341-0.278 0.62-0.62 0.62h-15.034c-0.342 0-0.62-0.279-0.62-0.62s0.278-0.62 0.62-0.62h15.034c0.342 0 0.62 0.278 0.62 0.62z"></path>
</svg>
<svg id="ic-fire" width="32" height="32" viewBox="0 0 32 32" x="288" y="96">
<path d="M9.822 32c-2.133-4.438-0.997-6.981 0.642-9.376 1.795-2.624 2.258-5.221 2.258-5.221s1.411 1.834 0.847 4.703c2.493-2.775 2.963-7.196 2.587-8.89 5.635 3.938 8.043 12.464 4.798 18.783 17.262-9.767 4.294-24.38 2.036-26.027 0.753 1.646 0.895 4.433-0.625 5.785-2.574-9.759-8.937-11.759-8.937-11.759 0.753 5.033-2.728 10.536-6.084 14.648-0.118-2.007-0.243-3.392-1.298-5.312-0.237 3.645-3.023 6.617-3.777 10.27-1.022 4.946 0.765 8.568 7.555 12.394z"></path>
</svg>
<svg id="ic-guarantee" width="32" height="32" viewBox="0 0 32 32" x="336" y="96">
<path fill="#595959" d="M29.557 6.819c0-1.251-0.752-2.096-2.016-2.255-0.239-0.033-0.486-0.060-0.725-0.087-0.712-0.087-1.384-0.16-2.029-0.299-2.521-0.552-4.963-1.69-7.664-3.579-0.446-0.313-0.938-0.599-1.517-0.599-0.572 0-1.064 0.286-1.51 0.592-3.612 2.481-6.866 3.746-10.232 3.958-1.457 0.093-2.222 0.918-2.222 2.388v2.648c-0.007 2.442-0.007 4.963 0.020 7.451 0.007 0.925 0.126 1.883 0.346 2.854 0.519 2.275 1.703 4.324 3.619 6.26 2.388 2.415 5.382 4.278 9.148 5.695 0.253 0.093 0.526 0.146 0.812 0.146 0.346 0 0.692-0.073 0.998-0.206 0.206-0.093 0.419-0.18 0.625-0.266l0.020-0.007c0.911-0.392 1.849-0.798 2.768-1.277 3.060-1.617 5.375-3.526 7.079-5.841 1.53-2.076 2.322-4.165 2.415-6.387 0.020-0.426 0.033-0.878 0.040-1.39l0.033-4.111v-1.67c0-1.344 0-2.681-0.007-4.018zM27.96 12.427v0.047l-0.033 4.125c-0.007 0.492-0.020 0.925-0.033 1.337-0.080 1.896-0.772 3.699-2.109 5.509-1.557 2.116-3.699 3.872-6.54 5.375-0.858 0.452-1.77 0.845-2.654 1.224l-0.020 0.007c-0.213 0.093-0.419 0.18-0.632 0.273-0.106 0.047-0.233 0.073-0.359 0.073-0.093 0-0.18-0.013-0.253-0.040-3.546-1.337-6.353-3.080-8.575-5.322-1.69-1.723-2.734-3.519-3.187-5.495-0.2-0.858-0.299-1.703-0.306-2.515-0.027-2.475-0.020-4.996-0.020-7.431v-2.648c0-0.306 0.047-0.532 0.14-0.625 0.087-0.093 0.293-0.153 0.592-0.173 3.666-0.239 7.172-1.583 11.030-4.245 0.299-0.206 0.499-0.306 0.605-0.306s0.306 0.106 0.605 0.313c2.881 2.009 5.502 3.227 8.236 3.825 0.718 0.16 1.43 0.239 2.189 0.326 0.239 0.027 0.472 0.053 0.712 0.087 0.466 0.060 0.619 0.226 0.619 0.672v4.012l-0.007 1.597z"></path>
<path fill="#595959" d="M21.836 14.259c-0.039-0.118-0.14-0.202-0.262-0.222l-3.66-0.52-1.647-3.31c-0.055-0.111-0.169-0.181-0.291-0.181v0c-0.123 0-0.236 0.070-0.291 0.183l-1.625 3.32-3.659 0.544c-0.123 0.019-0.224 0.104-0.262 0.222s-0.005 0.248 0.084 0.332l2.656 2.574-0.614 3.645c-0.022 0.123 0.029 0.246 0.13 0.318 0.055 0.041 0.123 0.063 0.19 0.063 0.053 0 0.104-0.012 0.152-0.039l3.267-1.731 3.277 1.712c0.048 0.024 0.099 0.036 0.149 0.036v0c0.178 0 0.325-0.147 0.325-0.325 0-0.026-0.002-0.051-0.010-0.075l-0.633-3.623 2.639-2.588c0.094-0.087 0.125-0.217 0.087-0.335z"></path>
</svg>
<svg id="ic-heart-border" width="32" height="32" viewBox="0 0 32 32" x="384" y="96">
<path fill="#979797" d="M21.6 3c-2.8 0-5.577 3.219-5.6 3.219s-2.8-3.219-5.6-3.219c-5.6 0-8.4 3.763-8.4 8.397 0 8.4 14 16.8 14 16.8s14-8.4 14-16.8c0-4.634-2.8-8.397-8.4-8.397zM21.6 1c6.41 0 10.4 4.332 10.4 10.397 0 4.4-2.901 8.752-7.662 13.037-1.597 1.437-3.3 2.766-5.003 3.958-0.596 0.418-1.151 0.789-1.651 1.11-0.305 0.196-0.527 0.334-0.654 0.41l-1.029 0.617-1.029-0.617c-0.127-0.076-0.349-0.214-0.654-0.41-0.5-0.321-1.055-0.693-1.651-1.11-1.703-1.192-3.406-2.521-5.003-3.958-4.761-4.285-7.662-8.636-7.662-13.037 0-6.065 3.99-10.397 10.4-10.397 2.112 0 4.162 1.080 5.6 2.69 1.438-1.609 3.488-2.69 5.6-2.69z"></path>
</svg>
<svg id="ic-heart-fill" width="32" height="32" viewBox="0 0 32 32" x="432" y="96">
<path opacity="0.7" fill="#000" d="M22.4 1c-3.2 0-6.4 3.197-6.4 6.397 0-3.2-3.2-6.397-6.4-6.397-6.4 0-9.6 4.301-9.6 9.597 0 9.6 16 19.2 16 19.2s16-9.6 16-19.2c0-5.296-3.2-9.597-9.6-9.597z"></path>
</svg>
<svg id="ic-help" width="32" height="32" viewBox="0 0 32 32" x="480" y="96">
<path opacity="0.7" fill="#000" d="M16 30.667c8.1 0 14.667-6.567 14.667-14.667s-6.566-14.667-14.667-14.667c-8.1 0-14.667 6.566-14.667 14.667s6.566 14.667 14.667 14.667zM16 32c-8.837 0-16-7.163-16-16s7.163-16 16-16c8.837 0 16 7.163 16 16s-7.163 16-16 16z"></path>
<path opacity="0.7" fill="#000" d="M16.889 21.333h-1.778v-1.778h1.778v1.778zM18.729 14.444l-0.8 0.818c-0.64 0.649-1.040 1.182-1.040 2.516h-1.778v-0.444c0-0.978 0.4-1.867 1.040-2.516l1.102-1.12c0.329-0.32 0.524-0.764 0.524-1.253 0-0.978-0.8-1.778-1.778-1.778s-1.778 0.8-1.778 1.778h-1.778c0-1.964 1.591-3.556 3.556-3.556s3.556 1.591 3.556 3.556c0 0.782-0.32 1.493-0.827 2v0z"></path>
</svg>
<svg id="ic-minus" width="32" height="32" viewBox="0 0 32 32" x="528" y="96">
<path fill="#595959" d="M0 14.933h32v2.133h-32v-2.133z"></path>
</svg>
<svg id="ic-order-status" width="29" height="32" viewBox="0 0 29 32" x="576" y="96">
<path opacity="0.7" fill="#000" d="M15.799 14.060c0.148 0.148 0.347 0.225 0.546 0.225s0.391-0.077 0.546-0.225l4.743-4.743c0.302-0.302 0.302-0.789 0-1.091s-0.789-0.302-1.091 0l-4.197 4.203-1.694-1.694c-0.302-0.302-0.789-0.302-1.091 0s-0.302 0.789 0 1.091l2.24 2.233z"></path>
<path opacity="0.7" fill="#000" d="M8.199 20.43h17.257c1.906 0 3.453-1.553 3.453-3.453v-7.271c0-0.424-0.347-0.77-0.77-0.77s-0.77 0.347-0.77 0.77v7.265c0 1.059-0.86 1.912-1.912 1.912h-17.257c-1.059 0-1.912-0.86-1.912-1.912v-14.196c0-0.026 0-0.058-0.006-0.083v-0.019c0-0.019-0.006-0.038-0.006-0.051s-0.006-0.032-0.013-0.045c0-0.006-0.006-0.019-0.006-0.026-0.006-0.019-0.013-0.032-0.019-0.051 0-0.006-0.006-0.013-0.006-0.019-0.006-0.013-0.013-0.032-0.019-0.045-0.006-0.006-0.006-0.019-0.013-0.026-0.006-0.013-0.013-0.026-0.019-0.038s-0.013-0.019-0.019-0.032c-0.006-0.006-0.013-0.019-0.019-0.026-0.006-0.013-0.019-0.026-0.026-0.032s-0.013-0.013-0.019-0.019-0.019-0.026-0.032-0.038c-0.006-0.006-0.013-0.013-0.019-0.013-0.013-0.013-0.026-0.026-0.038-0.032-0.006-0.006-0.013-0.013-0.019-0.019-0.013-0.006-0.026-0.019-0.038-0.026-0.013-0.013-0.032-0.019-0.045-0.032-0.006 0-0.013-0.006-0.013-0.013-0.026-0.013-0.051-0.026-0.077-0.038l-4.743-1.989c-0.391-0.167-0.841 0.019-1.008 0.411-0.167 0.385 0.019 0.841 0.411 1.008l4.268 1.803v19.099c0 1.81 1.393 3.292 3.164 3.44-0.359 0.539-0.571 1.187-0.571 1.887 0 1.88 1.534 3.414 3.414 3.414s3.414-1.534 3.414-3.414c0-0.693-0.205-1.335-0.558-1.874h8.169c-0.353 0.539-0.558 1.181-0.558 1.874 0 1.88 1.534 3.414 3.414 3.414s3.414-1.534 3.414-3.414c0-1.88-1.534-3.414-3.414-3.414h-16.429c-1.059 0-1.912-0.86-1.912-1.912v-2.535c0.545 0.366 1.207 0.584 1.912 0.584zM12.62 27.708c0 1.033-0.841 1.874-1.874 1.874s-1.874-0.841-1.874-1.874c0-1.033 0.841-1.874 1.874-1.874s1.874 0.841 1.874 1.874zM26.495 27.708c0 1.033-0.841 1.874-1.874 1.874s-1.874-0.841-1.874-1.874c0-1.033 0.841-1.874 1.874-1.874s1.874 0.841 1.874 1.874z"></path>
</svg>
<svg id="ic-pay" width="32" height="32" viewBox="0 0 32 32" x="624" y="96">
<path fill="#595959" d="M17.355 22.565h-15.156c-0.347 0-0.628-0.281-0.628-0.628v-11.949h26.732v1.571c0 0.432 0.353 0.785 0.785 0.785s0.785-0.353 0.785-0.785v-5.661c0-1.211-0.988-2.199-2.199-2.199h-25.476c-1.217 0-2.199 0.988-2.199 2.199v16.039c0 1.211 0.988 2.199 2.199 2.199h15.162c0.432 0 0.785-0.353 0.785-0.785s-0.353-0.785-0.792-0.785zM2.199 5.269h25.476c0.347 0 0.628 0.281 0.628 0.628v2.519h-26.739v-2.519c0-0.347 0.288-0.628 0.635-0.628z"></path>
<path fill="#595959" d="M15.719 15.818c0-0.432-0.353-0.785-0.785-0.785h-9.436c-0.432 0-0.785 0.353-0.785 0.785s0.353 0.785 0.785 0.785h9.436c0.438 0 0.785-0.353 0.785-0.785z"></path>
<path fill="#595959" d="M5.497 17.847c-0.432 0-0.785 0.353-0.785 0.785s0.353 0.785 0.785 0.785h3.776c0.432 0 0.785-0.353 0.785-0.785s-0.353-0.785-0.785-0.785h-3.776z"></path>
<path fill="#595959" d="M5.405 13.757h9.436c0.432 0 0.785-0.353 0.785-0.785s-0.353-0.785-0.785-0.785h-9.436c-0.432 0-0.785 0.353-0.785 0.785s0.347 0.785 0.785 0.785z"></path>
<path fill="#595959" d="M31.169 19.162h-1.152v-1.832c0-2.271-1.852-4.123-4.123-4.123s-4.123 1.852-4.123 4.123v1.832h-1.152c-0.432 0-0.785 0.353-0.785 0.785v6.806c0 0.432 0.353 0.785 0.785 0.785h10.542c0.432 0 0.785-0.353 0.785-0.785v-6.806c0.007-0.438-0.347-0.785-0.779-0.785zM23.342 17.323c0-1.407 1.145-2.552 2.552-2.552s2.552 1.145 2.552 2.552v1.832h-5.104v-1.832zM30.384 25.961h-8.978v-5.235h8.972v5.235h0.007z"></path>
</svg>
<svg id="ic-phone" width="32" height="32" viewBox="0 0 32 32" x="672" y="96">
<path fill="#5d5c5d" d="M13.558 18.384c3.171 3.146 6.84 6.153 8.279 4.702 2.065-2.079 3.335-3.887 7.912-0.235s1.080 6.11-0.917 8.124c-2.305 2.322-10.941 0.162-19.501-8.334-8.56-8.497-10.786-17.116-8.478-19.439 1.997-2.015 4.43-5.528 8.113-0.976 3.689 4.548 1.889 5.833-0.172 7.909-1.443 1.451 1.592 5.1 4.764 8.248z"></path>
</svg>
<svg id="ic-plus" width="32" height="32" viewBox="0 0 32 32" x="720" y="96">
<path fill="#595959" d="M17.067 14.933v-14.933h-2.133v14.933h-14.933v2.133h14.933v14.933h2.133v-14.933h14.933v-2.133h-14.933z"></path>
</svg>
<svg id="ic-return" width="32" height="32" viewBox="0 0 32 32" x="0" y="144">
<path fill="#5d5c5d" d="M26.414 3.936c2.857 2.507 4.73 5.955 5.273 9.71l-1.864 0.273c-0.478-3.308-2.129-6.346-4.647-8.555-2.542-2.231-5.803-3.459-9.181-3.459-5.198 0-9.95 2.911-12.358 7.491l1.741 0.546-4.142 3.841-1.236-5.529 1.812 0.569c2.677-5.377 8.167-8.813 14.183-8.813 3.833 0 7.533 1.394 10.418 3.926zM31.991 23.67l-1.812-0.569c-2.677 5.377-8.167 8.812-14.184 8.812-3.833 0-7.533-1.394-10.418-3.926-2.857-2.507-4.73-5.955-5.273-9.71l1.864-0.273c0.478 3.308 2.129 6.346 4.647 8.555 2.542 2.231 5.803 3.459 9.181 3.459 5.198 0 9.95-2.911 12.358-7.491l-1.741-0.546 4.142-3.84 1.236 5.529z"></path>
</svg>
<svg id="ic-ship" width="32" height="32" viewBox="0 0 32 32" x="48" y="144">
<path fill="#595959" d="M30.257 9.855c-1.066-1.153-2.581-1.783-4.264-1.783h-4.391v-2.467c0-0.442-0.362-0.805-0.805-0.805h-19.992c-0.443 0-0.805 0.362-0.805 0.805v17.693c0 0.442 0.362 0.805 0.805 0.805h3.205c0.261 1.488 1.555 2.621 3.118 2.621s2.856-1.133 3.118-2.621h12.316c0.261 1.488 1.555 2.621 3.118 2.621s2.856-1.133 3.118-2.621h2.4c0.442 0 0.805-0.362 0.805-0.805v-8.313c-0.007-2.125-0.603-3.902-1.743-5.129zM1.609 6.409h18.383v16.090h-9.889c-0.436-1.22-1.609-2.098-2.977-2.098s-2.541 0.878-2.977 2.098h-2.541v-16.090zM7.127 25.114c-0.858 0-1.555-0.697-1.555-1.555s0.697-1.555 1.555-1.555c0.858 0 1.555 0.697 1.555 1.555s-0.697 1.555-1.555 1.555zM25.678 25.114c-0.858 0-1.555-0.697-1.555-1.555s0.697-1.555 1.555-1.555c0.858 0 1.555 0.697 1.555 1.555s-0.697 1.555-1.555 1.555zM30.384 22.493h-1.73c-0.436-1.22-1.609-2.098-2.977-2.098s-2.541 0.878-2.977 2.098h-1.093v-12.812h4.391c2.709 0 4.391 2.031 4.391 5.303v7.509h-0.007z"></path>
</svg>
<svg id="ic-simple-checkout" width="32" height="32" viewBox="0 0 32 32" x="96" y="144">
<path opacity="0.7" fill="#000" d="M31.321 21.177c-3.442-2.364-8.007-3.448-9.626-3.775l-0.803-6.668c-0.026-1.495-1.254-2.704-2.756-2.704-1.482 0-2.678 1.143-2.749 2.612 0 0.026-0.007 0.052-0.007 0.078v3.951l-0.065 9.613-1.012-0.777c-1.241-1.084-4.167-2.416-6.511 0.157-0.255 0.281-0.281 0.692-0.059 0.999 0.065 0.091 1.646 2.305 4.16 4.689 0.32 0.307 0.829 0.287 1.13-0.033s0.287-0.829-0.033-1.13c-1.665-1.58-2.919-3.102-3.533-3.892 1.731-1.293 3.592 0.229 3.807 0.424 0.013 0.013 0.026 0.020 0.039 0.033l2.312 1.783c0.242 0.183 0.568 0.222 0.836 0.085 0.274-0.131 0.444-0.411 0.451-0.712l0.078-11.233v-3.938c0.020-0.627 0.522-1.117 1.156-1.117s1.156 0.516 1.156 1.156c0 0.033 0 0.065 0.007 0.098l0.875 7.295c0.039 0.353 0.313 0.633 0.66 0.692 0.052 0.007 5.447 0.934 9.3 3.442 0.144 0.927 0.47 3.709-0.176 6.269-0.111 0.431 0.15 0.862 0.581 0.973 0.065 0.020 0.131 0.026 0.196 0.026 0.359 0 0.686-0.242 0.777-0.607 0.875-3.474 0.17-7.138 0.144-7.288-0.046-0.202-0.163-0.385-0.333-0.503z"></path>
<path opacity="0.7" fill="#000" d="M6.805 2.035c-3.749 0-6.805 3.050-6.805 6.805 0 3.749 3.050 6.805 6.805 6.805 3.383 0 6.211-2.423 6.727-5.76 0.052-0.346 0.078-0.699 0.078-1.045 0-0.444-0.359-0.803-0.803-0.803s-0.803 0.359-0.803 0.803c0 0.268-0.020 0.536-0.059 0.803-0.385 2.508-2.599 4.402-5.14 4.402-2.867 0-5.205-2.331-5.205-5.205s2.331-5.205 5.205-5.205c1.541 0 2.998 0.686 3.977 1.855l-3.82 3.794-2.155-2.168c-0.313-0.313-0.816-0.313-1.13-0.007-0.313 0.313-0.313 0.816-0.007 1.13l2.717 2.736c0.15 0.15 0.353 0.235 0.568 0.235v0c0.209 0 0.411-0.085 0.562-0.235l8.274-8.229c0.313-0.313 0.313-0.816 0.007-1.13-0.313-0.313-0.816-0.313-1.13-0.007l-2.749 2.736c-1.28-1.456-3.141-2.312-5.113-2.312z"></path>
</svg>
<svg id="ic-google-plus" width="32" height="32" viewBox="0 0 32 32" x="0" y="192">
<path d="M10.181 14.294v3.494h5.775c-0.231 1.5-1.744 4.394-5.775 4.394-3.475 0-6.313-2.881-6.313-6.431s2.838-6.431 6.313-6.431c1.981 0 3.3 0.844 4.056 1.569l2.762-2.662c-1.775-1.656-4.075-2.662-6.819-2.662-5.631 0.006-10.181 4.556-10.181 10.188s4.55 10.181 10.181 10.181c5.875 0 9.775-4.131 9.775-9.95 0-0.669-0.075-1.181-0.163-1.688h-9.613z"></path>
<path d="M32 14h-3v-3h-3v3h-3v3h3v3h3v-3h3z"></path>
</svg>
<svg id="ic-facebook" width="32" height="32" viewBox="0 0 32 32" x="48" y="192">
<path d="M19 6h5v-6h-5c-3.86 0-7 3.14-7 7v3h-4v6h4v16h6v-16h5l1-6h-6v-3c0-0.542 0.458-1 1-1z"></path>
</svg>
<svg id="ic-instagram" width="32" height="32" viewBox="0 0 32 32" x="96" y="192">
<path d="M16 2.881c4.275 0 4.781 0.019 6.462 0.094 1.563 0.069 2.406 0.331 2.969 0.55 0.744 0.288 1.281 0.638 1.837 1.194 0.563 0.563 0.906 1.094 1.2 1.838 0.219 0.563 0.481 1.412 0.55 2.969 0.075 1.688 0.094 2.194 0.094 6.463s-0.019 4.781-0.094 6.463c-0.069 1.563-0.331 2.406-0.55 2.969-0.288 0.744-0.637 1.281-1.194 1.837-0.563 0.563-1.094 0.906-1.837 1.2-0.563 0.219-1.413 0.481-2.969 0.55-1.688 0.075-2.194 0.094-6.463 0.094s-4.781-0.019-6.463-0.094c-1.563-0.069-2.406-0.331-2.969-0.55-0.744-0.288-1.281-0.637-1.838-1.194-0.563-0.563-0.906-1.094-1.2-1.837-0.219-0.563-0.481-1.413-0.55-2.969-0.075-1.688-0.094-2.194-0.094-6.463s0.019-4.781 0.094-6.463c0.069-1.563 0.331-2.406 0.55-2.969 0.288-0.744 0.638-1.281 1.194-1.838 0.563-0.563 1.094-0.906 1.838-1.2 0.563-0.219 1.412-0.481 2.969-0.55 1.681-0.075 2.188-0.094 6.463-0.094zM16 0c-4.344 0-4.887 0.019-6.594 0.094-1.7 0.075-2.869 0.35-3.881 0.744-1.056 0.412-1.95 0.956-2.837 1.85-0.894 0.888-1.438 1.781-1.85 2.831-0.394 1.019-0.669 2.181-0.744 3.881-0.075 1.713-0.094 2.256-0.094 6.6s0.019 4.887 0.094 6.594c0.075 1.7 0.35 2.869 0.744 3.881 0.413 1.056 0.956 1.95 1.85 2.837 0.887 0.887 1.781 1.438 2.831 1.844 1.019 0.394 2.181 0.669 3.881 0.744 1.706 0.075 2.25 0.094 6.594 0.094s4.888-0.019 6.594-0.094c1.7-0.075 2.869-0.35 3.881-0.744 1.050-0.406 1.944-0.956 2.831-1.844s1.438-1.781 1.844-2.831c0.394-1.019 0.669-2.181 0.744-3.881 0.075-1.706 0.094-2.25 0.094-6.594s-0.019-4.887-0.094-6.594c-0.075-1.7-0.35-2.869-0.744-3.881-0.394-1.063-0.938-1.956-1.831-2.844-0.887-0.887-1.781-1.438-2.831-1.844-1.019-0.394-2.181-0.669-3.881-0.744-1.712-0.081-2.256-0.1-6.6-0.1v0z"></path>
<path d="M16 7.781c-4.537 0-8.219 3.681-8.219 8.219s3.681 8.219 8.219 8.219 8.219-3.681 8.219-8.219c0-4.537-3.681-8.219-8.219-8.219zM16 21.331c-2.944 0-5.331-2.387-5.331-5.331s2.387-5.331 5.331-5.331c2.944 0 5.331 2.387 5.331 5.331s-2.387 5.331-5.331 5.331z"></path>
<path d="M26.462 7.456c0 1.060-0.859 1.919-1.919 1.919s-1.919-0.859-1.919-1.919c0-1.060 0.859-1.919 1.919-1.919s1.919 0.859 1.919 1.919z"></path>
</svg>
<svg id="ic-linkedin2" width="32" height="32" viewBox="0 0 32 32" x="144" y="192">
<path d="M12 12h5.535v2.837h0.079c0.77-1.381 2.655-2.837 5.464-2.837 5.842 0 6.922 3.637 6.922 8.367v9.633h-5.769v-8.54c0-2.037-0.042-4.657-3.001-4.657-3.005 0-3.463 2.218-3.463 4.509v8.688h-5.767v-18z"></path>
<path d="M2 12h6v18h-6v-18z"></path>
<path d="M8 7c0 1.657-1.343 3-3 3s-3-1.343-3-3c0-1.657 1.343-3 3-3s3 1.343 3 3z"></path>
</svg>
<svg id="ic-spinner11" width="32" height="32" viewBox="0 0 32 32" x="192" y="192">
<path d="M32 12h-12l4.485-4.485c-2.267-2.266-5.28-3.515-8.485-3.515s-6.219 1.248-8.485 3.515c-2.266 2.267-3.515 5.28-3.515 8.485s1.248 6.219 3.515 8.485c2.267 2.266 5.28 3.515 8.485 3.515s6.219-1.248 8.485-3.515c0.189-0.189 0.371-0.384 0.546-0.583l3.010 2.634c-2.933 3.349-7.239 5.464-12.041 5.464-8.837 0-16-7.163-16-16s7.163-16 16-16c4.418 0 8.418 1.791 11.313 4.687l4.687-4.687v12z"></path>
</svg>
</svg>
